<svg width="334" height="135" viewBox="0 0 334 135" fill="none" xmlns="http://www.w3.org/2000/svg">
<g id="Paul Marchiset">
<path d="M99.1743 31.16V20.52C99.1743 12.84 99.0143 8.91995 98.9343 6.83995C98.8543 5.55995 98.6143 5.23995 96.9343 5.07996L92.6943 4.67996L93.0943 3.71995C94.6943 3.71995 101.014 3.95996 104.694 3.95996C109.014 3.95996 112.134 3.63995 117.814 3.63995C126.774 3.71995 129.734 5.07996 132.214 7.55995C134.294 9.63995 135.894 13.24 135.894 18.04C135.894 23.24 134.294 26.92 132.054 29.32C128.454 33.08 123.174 34.2 119.254 34.2C116.614 34.2 114.854 33.88 113.574 33.4L113.654 32.36C114.614 32.52 115.894 32.76 117.094 32.76C118.694 32.76 120.214 31.8 120.934 30.52C122.214 28.28 123.094 23.96 123.094 18.28C123.094 13 122.054 8.83995 120.534 7.07995C119.334 5.63995 117.494 4.83995 114.614 4.83995C112.214 4.83995 111.654 5.15995 111.574 6.51996C111.414 9.31995 111.174 14.84 111.174 22.92V40.6C111.174 47 111.414 49.8 111.494 51.4C111.574 53.16 112.134 53.56 114.454 53.88L118.374 54.36L118.214 55.32C115.494 55.32 111.174 55.08 104.854 55.08C99.8143 55.08 95.5743 55.32 92.6143 55.32V54.36L95.4943 54.04C98.0543 53.88 98.6143 53.4 98.7743 50.92C99.0943 46.68 99.1743 38.44 99.1743 31.16Z" fill="black"/>
<path d="M159.149 32.52L159.069 28.44C159.069 24.04 157.549 21.48 154.349 21.48C150.589 21.48 148.909 23.8 148.989 27.64C148.989 28.6 149.069 29.8 149.229 30.6C149.389 31.4 149.149 32.04 148.589 32.52C147.629 33.32 146.109 33.64 144.749 33.64C142.349 33.64 140.189 32.44 140.189 29.48C140.189 25.56 145.069 20.28 156.189 20.28C164.109 20.28 167.069 23.16 168.509 25.08C169.149 26.04 169.629 27.72 169.629 29C169.629 30.92 169.629 43.72 169.629 49.72C169.629 52.28 170.189 52.68 171.229 52.68C172.669 52.68 174.269 50.04 174.909 46.76L176.109 47.32C174.989 53.72 171.229 56.12 166.029 56.12C160.829 56.12 159.389 53.4 158.909 50.36C155.469 54.04 151.789 56.12 147.869 56.12C141.789 56.12 138.349 52.04 138.349 46.12C138.349 42.6 139.789 40.12 142.349 39.16C147.869 37 155.789 34.68 159.149 32.52ZM149.949 44.44V44.52C149.949 47.64 151.069 51.8 154.189 51.8C157.149 51.8 158.029 49.24 158.589 47.8C158.749 47 158.989 45.64 158.989 44.44L159.149 33.8C157.309 34.76 154.669 36.04 153.149 37C151.549 38.04 149.949 39.64 149.949 44.44Z" fill="black"/>
<path d="M198.444 22.6L198.364 21.48C201.324 21.48 205.324 21.4 208.284 21.16C211.324 21 213.324 20.76 214.204 20.76C214.044 22.6 213.884 26.36 213.884 31.48V41.56C213.884 45.56 213.884 48.68 214.204 51.56C214.444 53.48 214.764 53.72 218.604 53.64L218.524 54.76C216.044 54.84 213.724 55.08 210.044 55.32C206.684 55.64 203.964 55.96 202.844 56.12C202.764 53.96 202.684 50.92 202.684 49.48C200.284 52.04 195.964 56.12 189.484 56.12C184.284 56.12 181.964 53.64 181.324 52.04C180.924 51 180.604 49.48 180.604 47.64C180.684 41.8 180.764 35.56 180.844 29.64C180.924 26.6 180.764 25.32 180.684 24.04C180.524 22.6 179.964 22.52 176.764 22.52V21.4C179.884 21.4 183.164 21.24 185.884 21.08C188.684 20.92 191.004 20.76 192.604 20.52C192.124 22.44 191.724 26.2 191.724 36.6C191.724 43.48 191.724 47.4 192.124 49.8C192.364 51.64 193.244 52.6 195.004 52.6C198.844 52.6 201.004 49.72 202.124 46.84C202.684 45.32 202.764 44.12 202.764 42.52V31.4C202.764 28.04 202.764 25.96 202.524 24.12C202.364 22.84 201.324 22.68 198.444 22.6Z" fill="black"/>
<path d="M220.667 2.35995V1.39995C225.387 1.31996 231.627 0.759953 236.347 0.199951C236.187 2.51995 235.947 6.83995 235.947 17.24V38.04C235.947 46.52 235.947 49.48 236.027 51.48C236.187 53.88 236.667 54.12 240.267 54.28L240.187 55.32C237.787 55.32 232.907 55 230.507 55C225.867 55 221.947 55.32 220.187 55.32V54.28C223.547 54.28 224.267 53.72 224.427 51.24C224.507 49.56 224.827 43.56 224.827 35.72V16.44C224.827 8.99995 224.827 6.19995 224.667 4.27996C224.427 2.59995 224.187 2.43996 220.667 2.35995Z" fill="black"/>
<path d="M1.88896 82.68L1.96896 81.64C6.52896 81.88 9.80896 81.96 12.049 81.96C15.889 81.96 19.009 81.8 20.289 81.64C21.889 86.76 29.089 103.56 33.969 116.36C38.929 103.32 45.009 85.08 46.049 81.64C47.729 81.88 49.809 81.96 53.729 81.96C58.049 81.96 61.809 81.64 63.809 81.64L64.049 82.6C62.849 82.76 60.289 83 59.249 83.16C58.289 83.24 57.889 84.04 57.889 85.24C57.889 86.84 57.969 90.28 57.889 95.8C57.809 112.04 58.049 124.92 58.289 129C58.449 131.24 59.089 131.72 60.689 131.88L64.529 132.28L64.449 133.32C62.849 133.24 56.289 133 52.369 133C47.969 133 43.249 133.24 40.289 133.32L40.369 132.28C44.369 132.04 45.409 131.56 45.569 129.8C45.809 126.12 46.129 105.56 46.449 85.32H46.369C39.249 106.6 33.569 125.4 31.329 132.28L26.289 133.48C23.489 124.04 14.209 99.56 9.64896 86.12H9.48896C9.48896 104.44 9.80896 117.24 10.049 125.32C10.129 130.36 11.009 131.4 13.489 131.72L17.649 132.28L17.249 133.32C15.489 133.32 11.569 133 7.96896 133C4.76896 133 2.20896 133.32 0.928955 133.32V132.28C1.96896 132.12 2.68896 132.04 3.88896 131.8C5.88895 131.48 7.00896 130.52 7.24896 125.16C7.56896 118.76 8.12896 103.96 8.12896 85L7.80896 84.12C7.56896 83.64 6.84896 83.16 5.56895 83L1.88896 82.68Z" fill="black"/>
<path d="M87.079 110.52L86.999 106.44C86.999 102.04 85.479 99.4799 82.279 99.4799C78.519 99.4799 76.839 101.8 76.919 105.64C76.919 106.6 76.999 107.8 77.159 108.6C77.319 109.4 77.079 110.04 76.519 110.52C75.559 111.32 74.039 111.64 72.679 111.64C70.279 111.64 68.119 110.44 68.119 107.48C68.119 103.56 72.999 98.28 84.119 98.28C92.039 98.28 94.999 101.16 96.439 103.08C97.079 104.04 97.559 105.72 97.559 107C97.559 108.92 97.559 121.72 97.559 127.72C97.559 130.28 98.119 130.68 99.159 130.68C100.599 130.68 102.199 128.04 102.839 124.76L104.039 125.32C102.919 131.72 99.159 134.12 93.959 134.12C88.759 134.12 87.319 131.4 86.839 128.36C83.399 132.04 79.719 134.12 75.799 134.12C69.719 134.12 66.279 130.04 66.279 124.12C66.279 120.6 67.719 118.12 70.279 117.16C75.799 115 83.719 112.68 87.079 110.52ZM77.879 122.44V122.52C77.879 125.64 78.999 129.8 82.119 129.8C85.079 129.8 85.959 127.24 86.519 125.8C86.679 125 86.919 123.64 86.919 122.44L87.079 111.8C85.239 112.76 82.599 114.04 81.079 115C79.479 116.04 77.879 117.64 77.879 122.44Z" fill="black"/>
<path d="M109.1 119.48V113C109.1 108.12 108.94 104.52 108.46 102.44C108.3 101.56 107.98 101.16 107.02 101.16H104.86L104.7 100.12C108.3 100.04 115.74 99.48 119.1 98.44L119.34 98.68C119.66 100.12 119.9 103.64 119.9 107.4H120.14C122.3 101.56 124.78 98.28 129.5 98.28C132.86 98.28 134.78 100.92 134.78 103.8C134.78 108.52 131.34 109.48 129.82 109.48C128.14 109.48 127.02 108.68 126.78 107.64C126.3 105.64 125.98 104.52 124.38 104.52C122.7 104.52 121.66 106.04 120.86 108.44C120.46 109.72 120.22 110.84 120.22 113.64C120.22 123 120.22 127.72 120.38 129.72C120.46 131.56 121.18 132.04 126.22 132.28L125.98 133.32C122.7 133.24 119.18 133 115.02 133C110.86 133 107.34 133.24 104.38 133.32L104.7 132.28C107.98 132.2 108.62 131.72 108.78 130.28C108.94 128.44 109.1 124.92 109.1 119.48Z" fill="black"/>
<path d="M168.805 122.68L169.845 123.24C167.845 130.52 162.725 134.12 155.045 134.12C147.685 134.12 143.845 132.28 140.965 128.68C138.565 125.8 137.605 121.88 137.605 116.92C137.605 106.2 143.925 98.28 156.485 98.28C163.285 98.28 169.445 100.76 169.445 106.84C169.445 110.6 166.085 111.8 163.685 111.8C162.885 111.8 161.925 111.64 161.205 111.16C160.485 110.6 160.245 109.88 160.485 108.68C160.645 107.48 160.805 106.68 160.805 105.64C160.805 101.8 159.525 99.4 156.325 99.4C152.005 99.4 149.605 105.72 149.605 115.32C149.605 118.68 150.085 122.6 151.045 125.08C152.725 129.56 155.365 131.16 159.125 131.16C164.005 131.16 166.965 128.2 168.805 122.68Z" fill="black"/>
<path d="M172.741 80.36V79.4C177.141 79.32 186.261 78.6 188.261 78.2C188.101 81.64 187.941 87.8 187.941 93.24V103.56C190.581 101.32 194.821 98.28 200.181 98.28C206.181 98.28 208.261 101.32 208.901 102.68C209.621 103.96 209.941 105.8 209.941 107.48C209.941 115.16 209.781 125.72 209.861 129.72C209.861 131.72 210.181 132.2 214.021 132.28V133.32C212.021 133.32 207.941 133 204.421 133C200.501 133 196.981 133.32 195.141 133.32V132.28C197.781 132.2 198.421 131.72 198.581 130.2C198.741 128.68 198.821 125.48 198.821 119.88C198.821 107.48 198.741 106.36 198.421 105.08C197.861 103.16 196.661 101.72 194.341 101.72C191.781 101.72 189.701 103.08 188.581 105.16C188.101 106.04 187.941 106.84 187.941 108.28V119.4C187.941 124.44 187.941 127.8 188.181 130.04C188.261 131.8 188.741 132.12 191.781 132.28L191.701 133.32C190.021 133.32 185.781 133 182.581 133C176.821 133 174.421 133.32 172.341 133.32V132.28C175.701 132.2 176.341 131.72 176.501 129.88C176.661 127.48 176.821 123.96 176.821 115.8V93.64C176.821 85.88 176.741 83.48 176.581 81.96C176.501 80.6 175.941 80.36 172.741 80.36Z" fill="black"/>
<path d="M226.176 82.04H226.256C229.536 82.04 231.376 84.12 231.376 87.48C231.376 90.44 229.056 92.52 225.936 92.52C223.136 92.52 220.976 90.52 220.976 87.48C220.976 84.28 223.056 82.04 226.176 82.04ZM236.256 132.28L236.176 133.32C233.696 133.32 230.656 133 225.776 133C220.576 133 218.496 133.32 216.416 133.32V132.28C220.016 132.04 220.496 131.48 220.656 129.88C220.816 128.44 220.896 125.72 220.896 120.52V111.4C220.896 107.64 220.816 103.72 220.736 102.52C220.576 101.16 220.016 100.84 216.816 101V99.88C221.696 99.72 227.536 99.24 232.256 98.36C232.096 100.28 232.016 103.56 232.016 111.16V120.44C232.016 126.2 232.096 127.88 232.256 129.8C232.416 131.72 232.896 131.96 236.256 132.28Z" fill="black"/>
<path d="M264.18 110.2L263.22 110.6C263.14 105.64 259.78 99.56 253.94 99.56C250.1 99.56 248.1 101.8 248.1 104.6C248.1 106.36 248.98 107.64 250.5 108.52C253.06 109.96 259.46 112.12 262.02 113.48C265.62 115.32 267.06 118.2 267.06 121.56C267.06 130.68 260.1 134.04 252.34 134.04C248.26 134.04 243.78 132.92 241.22 131.96C241.3 129.8 241.3 125.08 241.06 119.8L241.94 119.56C242.26 121.48 242.66 123.88 244.1 126.6C245.94 130.36 249.62 132.68 253.38 132.68C257.94 132.68 259.54 130.44 259.54 127.48C259.54 125.88 258.58 124.44 256.9 123.64C254.42 122.44 250.9 120.84 248.26 119.72C242.98 117.48 241.38 114.04 241.38 110.12C241.38 102.44 247.38 98.28 254.5 98.28C257.62 98.28 261.54 99.32 262.9 100.68L264.1 97.56L264.82 98.04C264.1 103.16 264.1 107.64 264.18 110.2Z" fill="black"/>
<path d="M303.911 123.24C301.591 130.92 295.991 134.12 288.711 134.12C281.991 134.12 277.751 132.2 275.031 128.84C272.791 126.12 271.511 121.72 271.511 116.76C271.511 106.52 277.271 98.28 289.191 98.28C302.471 98.28 303.991 108.28 303.991 111.96C303.991 113.32 303.511 114.6 302.791 115C301.671 115.4 298.551 115.88 291.751 115.96C290.471 115.96 286.791 115.96 283.271 115.96C283.111 119.8 283.831 123.32 285.031 126.04C286.471 129.32 288.791 131.08 292.951 131.08C298.231 131.08 301.031 127.88 302.951 122.68L303.911 123.24ZM289.111 99.4799H289.031C285.671 99.4799 283.591 105.64 283.351 114.68C284.871 114.6 286.311 114.6 287.751 114.6C289.991 114.6 291.511 114.44 292.471 114.12C293.351 113.88 293.991 112.84 293.991 110.84C293.991 107.56 293.431 99.4799 289.111 99.4799Z" fill="black"/>
<path d="M323.099 99.4H332.139L331.979 100.68L323.099 101.24C323.099 104.12 322.939 109.32 322.939 115.16C322.939 121.32 322.939 126.36 323.259 129.24C323.419 130.92 324.299 131.64 325.659 131.64C329.339 131.64 331.499 127.24 331.899 124.28H332.299L333.179 126.36C331.659 130.92 327.099 134.04 320.939 134.04C317.499 134.04 314.699 133.08 313.179 131.32C312.219 130.12 311.819 128.76 311.739 126.44C311.579 120.44 311.979 108.28 311.979 101.16L307.339 100.68L307.739 99.4H312.059C312.059 97 312.139 93.08 312.139 90.36C316.939 89.32 321.339 87.7199 323.099 86.52L323.579 86.68C323.419 89 323.099 95.72 323.099 99.4Z" fill="black"/>
</g>
</svg>
