<svg width="1500" height="650" viewBox="0 0 1500 650" fill="none" xmlns="http://www.w3.org/2000/svg">
<g id="WIP" clip-path="url(#clip0_109_2)">
<rect width="1500" height="650" fill="#F3CC05"/>
<g id="BOTTOM">
<path id="Rectangle 62" d="M-16.1182 553.552L34.0886 553.552L8.5 650.145L-42.0001 650.145L-16.1182 553.552Z" fill="black"/>
<path id="Rectangle 62_2" d="M59.2446 553.552L109.451 553.552L83.8628 650.145L33.3626 650.145L59.2446 553.552Z" fill="black"/>
<path id="Rectangle 63" d="M134.607 553.552L184.814 553.552L159.225 650.145L108.725 650.145L134.607 553.552Z" fill="black"/>
<path id="Rectangle 63_2" d="M209.97 553.552L260.177 553.552L234.588 650.145L184.088 650.145L209.97 553.552Z" fill="black"/>
<path id="Rectangle 64" d="M285.332 553.552L335.539 553.552L309.95 650.145L259.45 650.145L285.332 553.552Z" fill="black"/>
<path id="Rectangle 64_2" d="M360.694 553.552L410.901 553.552L385.312 650.145L334.812 650.145L360.694 553.552Z" fill="black"/>
<path id="Rectangle 65" d="M436.058 553.552L486.264 553.552L460.676 650.145L410.176 650.145L436.058 553.552Z" fill="black"/>
<path id="Rectangle 65_2" d="M511.42 553.552L561.627 553.552L536.038 650.145L485.538 650.145L511.42 553.552Z" fill="black"/>
<path id="Rectangle 66" d="M586.782 553.552L636.989 553.552L611.4 650.145L560.9 650.145L586.782 553.552Z" fill="black"/>
<path id="Rectangle 66_2" d="M662.144 553.552L712.351 553.552L686.763 650.145L636.263 650.145L662.144 553.552Z" fill="black"/>
<path id="Rectangle 68" d="M737.508 553.552L787.715 553.552L762.126 650.145L711.626 650.145L737.508 553.552Z" fill="black"/>
<path id="Rectangle 68_2" d="M812.87 553.552L863.077 553.552L837.488 650.145L786.988 650.145L812.87 553.552Z" fill="black"/>
<path id="Rectangle 67" d="M888.232 553.552L938.439 553.552L912.851 650.145L862.35 650.145L888.232 553.552Z" fill="black"/>
<path id="Rectangle 67_2" d="M963.595 553.552L1013.8 553.552L988.213 650.145L937.713 650.145L963.595 553.552Z" fill="black"/>
<path id="Rectangle 69" d="M1038.96 553.552L1089.16 553.552L1063.58 650.145L1013.08 650.145L1038.96 553.552Z" fill="black"/>
<path id="Rectangle 69_2" d="M1114.32 553.552L1164.53 553.552L1138.94 650.145L1088.44 650.145L1114.32 553.552Z" fill="black"/>
<path id="Rectangle 70" d="M1189.68 553.552L1239.89 553.552L1214.3 650.145L1163.8 650.145L1189.68 553.552Z" fill="black"/>
<path id="Rectangle 70_2" d="M1265.04 553.552L1315.25 553.552L1289.66 650.145L1239.16 650.145L1265.04 553.552Z" fill="black"/>
<path id="Rectangle 71" d="M1340.41 553.552L1390.61 553.552L1365.03 650.145L1314.53 650.145L1340.41 553.552Z" fill="black"/>
<path id="Rectangle 71_2" d="M1415.77 553.552L1465.98 553.552L1440.39 650.145L1389.89 650.145L1415.77 553.552Z" fill="black"/>
<path id="Rectangle 72" d="M1491.13 553.552L1541.34 553.552L1515.75 650.145L1465.25 650.145L1491.13 553.552Z" fill="black"/>
</g>
<path id="WORK IN PROGRESS" d="M641.3 372.5L635.325 390.125H631.975L628.025 378.675L624.075 390.125H620.725L614.75 372.5H618.875L622.5 384.35L626.425 372.45H629.725L633.65 384.35L637.275 372.5H641.3ZM661.977 381.25C661.977 382.5 661.743 383.675 661.277 384.775C660.81 385.858 660.16 386.817 659.327 387.65C658.51 388.467 657.527 389.117 656.377 389.6C655.243 390.067 654.002 390.3 652.652 390.3C651.302 390.3 650.06 390.067 648.927 389.6C647.793 389.117 646.81 388.475 645.977 387.675C645.16 386.858 644.518 385.908 644.052 384.825C643.602 383.725 643.377 382.55 643.377 381.3V381.25C643.377 380 643.61 378.833 644.077 377.75C644.543 376.65 645.185 375.692 646.002 374.875C646.835 374.042 647.818 373.392 648.952 372.925C650.102 372.442 651.352 372.2 652.702 372.2C654.052 372.2 655.293 372.442 656.427 372.925C657.56 373.392 658.535 374.033 659.352 374.85C660.185 375.65 660.827 376.6 661.277 377.7C661.743 378.783 661.977 379.95 661.977 381.2V381.25ZM657.952 381.3V381.25C657.952 380.5 657.818 379.792 657.552 379.125C657.302 378.458 656.935 377.875 656.452 377.375C655.985 376.875 655.427 376.483 654.777 376.2C654.127 375.9 653.418 375.75 652.652 375.75C651.868 375.75 651.152 375.892 650.502 376.175C649.868 376.458 649.318 376.85 648.852 377.35C648.402 377.85 648.043 378.433 647.777 379.1C647.527 379.75 647.402 380.45 647.402 381.2V381.25C647.402 382 647.527 382.708 647.777 383.375C648.043 384.042 648.41 384.625 648.877 385.125C649.36 385.625 649.918 386.025 650.552 386.325C651.202 386.608 651.918 386.75 652.702 386.75C653.468 386.75 654.177 386.608 654.827 386.325C655.477 386.042 656.027 385.65 656.477 385.15C656.943 384.65 657.302 384.075 657.552 383.425C657.818 382.758 657.952 382.05 657.952 381.3ZM680.517 390H676.017L672.267 384.4H669.242V390H665.392V372.5H673.392C675.475 372.5 677.092 373.008 678.242 374.025C679.409 375.042 679.992 376.458 679.992 378.275V378.325C679.992 379.742 679.642 380.9 678.942 381.8C678.259 382.683 677.359 383.333 676.242 383.75L680.517 390ZM676.092 378.525V378.475C676.092 377.642 675.825 377.017 675.292 376.6C674.759 376.183 674.017 375.975 673.067 375.975H669.242V381H673.142C674.092 381 674.817 380.775 675.317 380.325C675.834 379.875 676.092 379.275 676.092 378.525ZM699.383 390H694.758L689.333 382.55L687.308 384.65V390H683.458V372.5H687.308V380.15L694.408 372.5H699.058L691.933 379.925L699.383 390ZM713.24 390H709.39V372.5H713.24V390ZM733.164 390H729.889L721.414 378.875V390H717.614V372.5H721.164L729.364 383.275V372.5H733.164V390ZM758.71 378.6C758.71 379.617 758.526 380.508 758.16 381.275C757.793 382.042 757.285 382.683 756.635 383.2C756.001 383.717 755.251 384.108 754.385 384.375C753.535 384.625 752.618 384.75 751.635 384.75H748.71V390H744.86V372.5H752.01C753.06 372.5 753.993 372.65 754.81 372.95C755.643 373.233 756.343 373.642 756.91 374.175C757.493 374.708 757.935 375.35 758.235 376.1C758.551 376.833 758.71 377.65 758.71 378.55V378.6ZM754.81 378.675V378.625C754.81 377.758 754.526 377.1 753.96 376.65C753.41 376.2 752.651 375.975 751.685 375.975H748.71V381.325H751.76C752.726 381.325 753.476 381.075 754.01 380.575C754.543 380.058 754.81 379.425 754.81 378.675ZM776.684 390H772.184L768.434 384.4H765.409V390H761.559V372.5H769.559C771.642 372.5 773.259 373.008 774.409 374.025C775.576 375.042 776.159 376.458 776.159 378.275V378.325C776.159 379.742 775.809 380.9 775.109 381.8C774.426 382.683 773.526 383.333 772.409 383.75L776.684 390ZM772.259 378.525V378.475C772.259 377.642 771.992 377.017 771.459 376.6C770.926 376.183 770.184 375.975 769.234 375.975H765.409V381H769.309C770.259 381 770.984 380.775 771.484 380.325C772.001 379.875 772.259 379.275 772.259 378.525ZM797.45 381.25C797.45 382.5 797.217 383.675 796.75 384.775C796.284 385.858 795.634 386.817 794.8 387.65C793.984 388.467 793 389.117 791.85 389.6C790.717 390.067 789.475 390.3 788.125 390.3C786.775 390.3 785.534 390.067 784.4 389.6C783.267 389.117 782.284 388.475 781.45 387.675C780.634 386.858 779.992 385.908 779.525 384.825C779.075 383.725 778.85 382.55 778.85 381.3V381.25C778.85 380 779.084 378.833 779.55 377.75C780.017 376.65 780.659 375.692 781.475 374.875C782.309 374.042 783.292 373.392 784.425 372.925C785.575 372.442 786.825 372.2 788.175 372.2C789.525 372.2 790.767 372.442 791.9 372.925C793.034 373.392 794.009 374.033 794.825 374.85C795.659 375.65 796.3 376.6 796.75 377.7C797.217 378.783 797.45 379.95 797.45 381.2V381.25ZM793.425 381.3V381.25C793.425 380.5 793.292 379.792 793.025 379.125C792.775 378.458 792.409 377.875 791.925 377.375C791.459 376.875 790.9 376.483 790.25 376.2C789.6 375.9 788.892 375.75 788.125 375.75C787.342 375.75 786.625 375.892 785.975 376.175C785.342 376.458 784.792 376.85 784.325 377.35C783.875 377.85 783.517 378.433 783.25 379.1C783 379.75 782.875 380.45 782.875 381.2V381.25C782.875 382 783 382.708 783.25 383.375C783.517 384.042 783.884 384.625 784.35 385.125C784.834 385.625 785.392 386.025 786.025 386.325C786.675 386.608 787.392 386.75 788.175 386.75C788.942 386.75 789.65 386.608 790.3 386.325C790.95 386.042 791.5 385.65 791.95 385.15C792.417 384.65 792.775 384.075 793.025 383.425C793.292 382.758 793.425 382.05 793.425 381.3ZM816.766 387.525C815.866 388.292 814.791 388.95 813.541 389.5C812.307 390.033 810.891 390.3 809.291 390.3C807.924 390.3 806.674 390.075 805.541 389.625C804.424 389.175 803.457 388.55 802.641 387.75C801.841 386.95 801.216 386 800.766 384.9C800.316 383.8 800.091 382.6 800.091 381.3V381.25C800.091 380 800.316 378.833 800.766 377.75C801.232 376.65 801.874 375.692 802.691 374.875C803.507 374.042 804.474 373.392 805.591 372.925C806.707 372.442 807.932 372.2 809.266 372.2C810.049 372.2 810.757 372.258 811.391 372.375C812.041 372.475 812.641 372.625 813.191 372.825C813.741 373.025 814.257 373.275 814.741 373.575C815.224 373.875 815.691 374.217 816.141 374.6L813.716 377.525C813.382 377.242 813.049 376.992 812.716 376.775C812.382 376.558 812.032 376.375 811.666 376.225C811.316 376.075 810.932 375.958 810.516 375.875C810.099 375.792 809.641 375.75 809.141 375.75C808.441 375.75 807.782 375.9 807.166 376.2C806.566 376.483 806.032 376.875 805.566 377.375C805.116 377.858 804.757 378.433 804.491 379.1C804.241 379.75 804.116 380.45 804.116 381.2V381.25C804.116 382.05 804.241 382.792 804.491 383.475C804.757 384.142 805.124 384.725 805.591 385.225C806.074 385.725 806.632 386.117 807.266 386.4C807.916 386.667 808.632 386.8 809.416 386.8C810.849 386.8 812.057 386.45 813.041 385.75V383.25H809.166V379.925H816.766V387.525ZM835.595 390H831.095L827.345 384.4H824.32V390H820.47V372.5H828.47C830.553 372.5 832.17 373.008 833.32 374.025C834.487 375.042 835.07 376.458 835.07 378.275V378.325C835.07 379.742 834.72 380.9 834.02 381.8C833.337 382.683 832.437 383.333 831.32 383.75L835.595 390ZM831.17 378.525V378.475C831.17 377.642 830.903 377.017 830.37 376.6C829.837 376.183 829.095 375.975 828.145 375.975H824.32V381H828.22C829.17 381 829.895 380.775 830.395 380.325C830.912 379.875 831.17 379.275 831.17 378.525ZM851.862 390H838.537V372.5H851.737V375.925H842.362V379.475H850.612V382.9H842.362V386.575H851.862V390ZM867.935 384.825C867.935 385.692 867.776 386.467 867.46 387.15C867.143 387.817 866.701 388.383 866.135 388.85C865.568 389.3 864.893 389.65 864.11 389.9C863.326 390.133 862.46 390.25 861.51 390.25C860.176 390.25 858.868 390.025 857.585 389.575C856.301 389.108 855.135 388.4 854.085 387.45L856.36 384.725C857.16 385.375 857.976 385.892 858.81 386.275C859.66 386.658 860.585 386.85 861.585 386.85C862.385 386.85 863.001 386.708 863.435 386.425C863.885 386.125 864.11 385.717 864.11 385.2V385.15C864.11 384.9 864.06 384.683 863.96 384.5C863.876 384.3 863.701 384.117 863.435 383.95C863.185 383.783 862.826 383.617 862.36 383.45C861.91 383.283 861.318 383.108 860.585 382.925C859.701 382.708 858.901 382.467 858.185 382.2C857.468 381.933 856.86 381.608 856.36 381.225C855.86 380.825 855.468 380.333 855.185 379.75C854.918 379.167 854.785 378.442 854.785 377.575V377.525C854.785 376.725 854.935 376.008 855.235 375.375C855.535 374.725 855.951 374.167 856.485 373.7C857.035 373.233 857.685 372.875 858.435 372.625C859.185 372.375 860.01 372.25 860.91 372.25C862.193 372.25 863.368 372.442 864.435 372.825C865.518 373.208 866.51 373.758 867.41 374.475L865.41 377.375C864.626 376.842 863.86 376.425 863.11 376.125C862.36 375.808 861.61 375.65 860.86 375.65C860.11 375.65 859.543 375.8 859.16 376.1C858.793 376.383 858.61 376.742 858.61 377.175V377.225C858.61 377.508 858.66 377.758 858.76 377.975C858.876 378.175 859.076 378.358 859.36 378.525C859.643 378.692 860.026 378.85 860.51 379C861.01 379.15 861.635 379.325 862.385 379.525C863.268 379.758 864.051 380.025 864.735 380.325C865.435 380.608 866.018 380.958 866.485 381.375C866.968 381.775 867.326 382.25 867.56 382.8C867.81 383.35 867.935 384.008 867.935 384.775V384.825ZM883.926 384.825C883.926 385.692 883.767 386.467 883.451 387.15C883.134 387.817 882.692 388.383 882.126 388.85C881.559 389.3 880.884 389.65 880.101 389.9C879.317 390.133 878.451 390.25 877.501 390.25C876.167 390.25 874.859 390.025 873.576 389.575C872.292 389.108 871.126 388.4 870.076 387.45L872.351 384.725C873.151 385.375 873.967 385.892 874.801 386.275C875.651 386.658 876.576 386.85 877.576 386.85C878.376 386.85 878.992 386.708 879.426 386.425C879.876 386.125 880.101 385.717 880.101 385.2V385.15C880.101 384.9 880.051 384.683 879.951 384.5C879.867 384.3 879.692 384.117 879.426 383.95C879.176 383.783 878.817 383.617 878.351 383.45C877.901 383.283 877.309 383.108 876.576 382.925C875.692 382.708 874.892 382.467 874.176 382.2C873.459 381.933 872.851 381.608 872.351 381.225C871.851 380.825 871.459 380.333 871.176 379.75C870.909 379.167 870.776 378.442 870.776 377.575V377.525C870.776 376.725 870.926 376.008 871.226 375.375C871.526 374.725 871.942 374.167 872.476 373.7C873.026 373.233 873.676 372.875 874.426 372.625C875.176 372.375 876.001 372.25 876.901 372.25C878.184 372.25 879.359 372.442 880.426 372.825C881.509 373.208 882.501 373.758 883.401 374.475L881.401 377.375C880.617 376.842 879.851 376.425 879.101 376.125C878.351 375.808 877.601 375.65 876.851 375.65C876.101 375.65 875.534 375.8 875.151 376.1C874.784 376.383 874.601 376.742 874.601 377.175V377.225C874.601 377.508 874.651 377.758 874.751 377.975C874.867 378.175 875.067 378.358 875.351 378.525C875.634 378.692 876.017 378.85 876.501 379C877.001 379.15 877.626 379.325 878.376 379.525C879.259 379.758 880.042 380.025 880.726 380.325C881.426 380.608 882.009 380.958 882.476 381.375C882.959 381.775 883.317 382.25 883.551 382.8C883.801 383.35 883.926 384.008 883.926 384.775V384.825Z" fill="black"/>
<g id="LOGO">
<path id="Rectangle 57" d="M803 254V254C814.046 254 823 262.954 823 274V334H803V254Z" fill="white"/>
<path id="Rectangle 58" d="M743 254H763V334V334C751.954 334 743 325.046 743 314V254Z" fill="white"/>
<path id="Rectangle 59" d="M773 254H793V334H773V254Z" fill="white"/>
<path id="Rectangle 60" d="M713 254V254C724.046 254 733 262.954 733 274V284C733 295.046 724.046 304 713 304V304V254Z" fill="white"/>
<path id="Rectangle 61" d="M683 274C683 262.954 691.954 254 703 254V254V314C703 325.046 694.046 334 683 334V334V274Z" fill="white"/>
</g>
<g id="UP">
<path id="Rectangle 62_3" d="M-13.1182 -0.447797L37.0886 -0.448321L11.5 96.1448L-39.0001 96.1448L-13.1182 -0.447797Z" fill="black"/>
<path id="Rectangle 62_4" d="M62.2446 -0.447797L112.451 -0.448321L86.8628 96.1448L36.3626 96.1448L62.2446 -0.447797Z" fill="black"/>
<path id="Rectangle 63_3" d="M137.607 -0.447797L187.814 -0.448321L162.225 96.1448L111.725 96.1448L137.607 -0.447797Z" fill="black"/>
<path id="Rectangle 63_4" d="M212.97 -0.447797L263.177 -0.448321L237.588 96.1448L187.088 96.1448L212.97 -0.447797Z" fill="black"/>
<path id="Rectangle 64_3" d="M288.332 -0.447797L338.539 -0.448321L312.95 96.1448L262.45 96.1448L288.332 -0.447797Z" fill="black"/>
<path id="Rectangle 64_4" d="M363.694 -0.447797L413.901 -0.448321L388.312 96.1448L337.812 96.1448L363.694 -0.447797Z" fill="black"/>
<path id="Rectangle 65_3" d="M439.058 -0.447797L489.264 -0.448321L463.676 96.1448L413.176 96.1448L439.058 -0.447797Z" fill="black"/>
<path id="Rectangle 65_4" d="M514.42 -0.447797L564.627 -0.448321L539.038 96.1448L488.538 96.1448L514.42 -0.447797Z" fill="black"/>
<path id="Rectangle 66_3" d="M589.782 -0.447797L639.989 -0.448321L614.4 96.1448L563.9 96.1448L589.782 -0.447797Z" fill="black"/>
<path id="Rectangle 66_4" d="M665.144 -0.447797L715.351 -0.448321L689.763 96.1448L639.263 96.1448L665.144 -0.447797Z" fill="black"/>
<path id="Rectangle 68_3" d="M740.508 -0.447797L790.715 -0.448321L765.126 96.1448L714.626 96.1448L740.508 -0.447797Z" fill="black"/>
<path id="Rectangle 68_4" d="M815.87 -0.447797L866.077 -0.448321L840.488 96.1448L789.988 96.1448L815.87 -0.447797Z" fill="black"/>
<path id="Rectangle 67_3" d="M891.232 -0.447797L941.439 -0.448321L915.851 96.1448L865.35 96.1448L891.232 -0.447797Z" fill="black"/>
<path id="Rectangle 67_4" d="M966.595 -0.447797L1016.8 -0.448321L991.213 96.1448L940.713 96.1448L966.595 -0.447797Z" fill="black"/>
<path id="Rectangle 69_3" d="M1041.96 -0.447797L1092.16 -0.448321L1066.58 96.1448L1016.08 96.1448L1041.96 -0.447797Z" fill="black"/>
<path id="Rectangle 69_4" d="M1117.32 -0.447797L1167.53 -0.448321L1141.94 96.1448L1091.44 96.1448L1117.32 -0.447797Z" fill="black"/>
<path id="Rectangle 70_3" d="M1192.68 -0.447797L1242.89 -0.448321L1217.3 96.1448L1166.8 96.1448L1192.68 -0.447797Z" fill="black"/>
<path id="Rectangle 70_4" d="M1268.04 -0.447797L1318.25 -0.448321L1292.66 96.1448L1242.16 96.1448L1268.04 -0.447797Z" fill="black"/>
<path id="Rectangle 71_3" d="M1343.41 -0.447797L1393.61 -0.448321L1368.03 96.1448L1317.53 96.1448L1343.41 -0.447797Z" fill="black"/>
<path id="Rectangle 71_4" d="M1418.77 -0.447797L1468.98 -0.448321L1443.39 96.1448L1392.89 96.1448L1418.77 -0.447797Z" fill="black"/>
<path id="Rectangle 72_2" d="M1494.13 -0.447797L1544.34 -0.448321L1518.75 96.1448L1468.25 96.1448L1494.13 -0.447797Z" fill="black"/>
</g>
</g>
<defs>
<clipPath id="clip0_109_2">
<rect width="1500" height="650" fill="white"/>
</clipPath>
</defs>
</svg>
