<svg width="2201" height="716" viewBox="0 0 2201 716" fill="none" xmlns="http://www.w3.org/2000/svg">
<rect width="2201" height="716" fill="#020202"/>
<path fill-rule="evenodd" clip-rule="evenodd" d="M862.274 240.795C851.791 236.302 839.062 234.056 824.086 234.056C806.114 234.056 790.015 237.925 775.788 245.662C761.81 253.4 750.828 264.632 742.841 279.358C735.103 293.835 731.234 311.182 731.234 331.4C731.234 346.156 733.295 359.449 737.417 371.28H770.24H779.546C778.881 370.014 778.252 368.701 777.66 367.342C773.417 357.608 771.295 345.752 771.295 331.774C771.295 317.547 773.292 305.566 777.286 295.832C781.529 286.098 787.644 278.734 795.631 273.742C803.618 268.501 813.228 265.88 824.46 265.88C835.942 265.88 845.177 269 852.166 275.24C859.404 281.23 864.646 289.966 867.89 301.448L905.705 286.472C901.961 276.238 896.47 267.128 889.231 259.141C881.993 251.154 873.007 245.038 862.274 240.795ZM988.762 371.28H947.651C943.53 359.449 941.469 346.156 941.469 331.4C941.469 311.182 945.338 293.835 953.075 279.358C961.062 264.632 972.045 253.4 986.022 245.662C1000 237.925 1015.85 234.056 1033.57 234.056C1051.79 234.056 1067.27 237.8 1080 245.288C1092.73 252.776 1102.46 263.01 1109.2 275.989C1115.94 288.968 1119.31 303.694 1119.31 320.168C1119.31 324.661 1119.18 328.904 1118.93 332.898C1118.68 336.891 1118.31 340.386 1117.81 343.381H980.597C981.521 352.439 983.579 360.426 986.771 367.342C987.398 368.701 988.062 370.014 988.762 371.28ZM1209.96 371.28H1169.9V237.8H1205.47L1207.22 270.333C1210.14 264.341 1213.68 259.112 1217.82 254.648C1224.56 247.41 1232.42 242.168 1241.41 238.923C1250.65 235.678 1260.38 234.056 1270.61 234.056C1283.84 234.056 1295.7 236.677 1306.18 241.918C1316.91 246.91 1325.4 254.523 1331.64 264.757C1337.88 274.99 1341 287.97 1341 303.694V371.28H1300.94V316.05C1300.94 297.579 1297.07 284.85 1289.33 277.861C1281.85 270.622 1272.36 267.003 1260.88 267.003C1252.64 267.003 1244.65 269 1236.92 272.994C1229.18 276.738 1222.69 282.853 1217.45 291.339C1212.46 299.826 1209.96 311.182 1209.96 325.41V371.28ZM1454.23 371.28H1414.11V269.25H1378.17V237.8H1414.11V193.995L1454.17 182.763V237.8H1518.57V269.25H1454.17V368.84C1454.17 369.674 1454.19 370.487 1454.23 371.28ZM1598.25 371.28H1581.44H1558.19V237.8H1592.26L1596.01 271.496C1601 259.266 1608.36 250.03 1618.1 243.79C1628.08 237.301 1640.31 234.056 1654.79 234.056C1658.53 234.056 1662.28 234.43 1666.02 235.179C1669.76 235.678 1672.88 236.552 1675.38 237.8L1669.76 272.994C1667.02 271.995 1663.9 271.246 1660.4 270.747C1657.16 269.998 1652.67 269.624 1646.93 269.624C1639.19 269.624 1631.58 271.746 1624.09 275.989C1616.6 279.982 1610.36 286.098 1605.37 294.334C1600.63 302.571 1598.25 313.054 1598.25 325.784V371.28ZM1743.78 371.28H1743.68H1703.12L1702.62 371.148C1698.53 359.35 1696.48 346.101 1696.48 331.4C1696.48 311.182 1700.35 293.835 1708.09 279.358C1716.08 264.632 1727.06 253.4 1741.04 245.662C1755.02 237.925 1770.87 234.056 1788.59 234.056C1806.81 234.056 1822.28 237.8 1835.01 245.288C1847.74 252.776 1857.48 263.01 1864.22 275.989C1870.95 288.968 1874.32 303.694 1874.32 320.168C1874.32 324.661 1874.2 328.904 1873.95 332.898C1873.7 336.891 1873.33 340.386 1872.83 343.381H1735.61C1736.54 352.439 1738.59 360.426 1741.79 367.342C1742.41 368.701 1743.08 370.014 1743.78 371.28ZM1736.54 312.68H1835.2C1834.3 298.613 1830.12 287.63 1822.66 279.733C1814.17 270.498 1802.56 265.88 1787.84 265.88C1777.11 265.88 1767.75 268.376 1759.76 273.368C1751.77 278.36 1745.66 285.848 1741.41 295.832C1739.22 300.851 1737.6 306.467 1736.54 312.68ZM981.526 312.68H1080.18C1079.28 298.613 1075.1 287.63 1067.64 279.733C1059.16 270.498 1047.55 265.88 1032.82 265.88C1022.09 265.88 1012.73 268.376 1004.74 273.368C996.755 278.36 990.64 285.848 986.397 295.832C984.209 300.851 982.585 306.467 981.526 312.68Z" fill="white"/>
<path fill-rule="evenodd" clip-rule="evenodd" d="M212 379.907L296.06 182L635.898 340.603L552.055 538L351.863 259.992L286.217 414.545L212 379.907Z" fill="white"/>
<path d="M1118.93 435.28L1078.13 495.28H1077.49L1036.69 435.44V526H1024.37V414H1037.17L1077.97 475.12L1118.77 414H1131.57V526H1118.93V435.28ZM1216.56 413.2L1267.6 526H1254L1240.88 496.4H1179.92L1166.64 526H1153.68L1204.72 413.2H1216.56ZM1235.92 485.04L1210.48 427.92L1184.88 485.04H1235.92ZM1382.32 526H1366.8L1334.32 482.48H1302.32V526H1289.68V414H1337.84C1344.03 414 1349.58 414.8 1354.48 416.4C1359.5 418 1363.76 420.293 1367.28 423.28C1370.8 426.16 1373.52 429.68 1375.44 433.84C1377.36 437.893 1378.32 442.427 1378.32 447.44C1378.32 452.133 1377.58 456.347 1376.08 460.08C1374.59 463.707 1372.46 466.907 1369.68 469.68C1367.02 472.347 1363.82 474.587 1360.08 476.4C1356.35 478.213 1352.3 479.493 1347.92 480.24L1382.32 526ZM1365.52 447.92C1365.52 440.88 1363.02 435.44 1358 431.6C1352.99 427.653 1345.95 425.68 1336.88 425.68H1302.32V471.12H1336.72C1340.88 471.12 1344.72 470.587 1348.24 469.52C1351.76 468.453 1354.8 466.96 1357.36 465.04C1359.92 463.013 1361.9 460.56 1363.28 457.68C1364.78 454.8 1365.52 451.547 1365.52 447.92ZM1501.31 508.24C1498.43 511.227 1495.39 513.947 1492.19 516.4C1489.1 518.747 1485.74 520.773 1482.11 522.48C1478.48 524.187 1474.59 525.52 1470.43 526.48C1466.27 527.44 1461.63 527.92 1456.51 527.92C1448.4 527.92 1440.94 526.427 1434.11 523.44C1427.28 520.453 1421.36 516.4 1416.35 511.28C1411.34 506.053 1407.39 499.92 1404.51 492.88C1401.74 485.84 1400.35 478.267 1400.35 470.16C1400.35 462.16 1401.74 454.64 1404.51 447.6C1407.39 440.56 1411.34 434.427 1416.35 429.2C1421.36 423.867 1427.34 419.707 1434.27 416.72C1441.2 413.627 1448.78 412.08 1456.99 412.08C1462.11 412.08 1466.7 412.507 1470.75 413.36C1474.91 414.213 1478.75 415.44 1482.27 417.04C1485.79 418.533 1489.04 420.4 1492.03 422.64C1495.02 424.773 1497.9 427.173 1500.67 429.84L1492.03 439.12C1487.23 434.64 1482.06 430.96 1476.51 428.08C1471.07 425.2 1464.51 423.76 1456.83 423.76C1450.64 423.76 1444.88 424.933 1439.55 427.28C1434.32 429.627 1429.74 432.88 1425.79 437.04C1421.95 441.2 1418.91 446.107 1416.67 451.76C1414.54 457.307 1413.47 463.333 1413.47 469.84C1413.47 476.347 1414.54 482.427 1416.67 488.08C1418.91 493.733 1421.95 498.64 1425.79 502.8C1429.74 506.96 1434.32 510.267 1439.55 512.72C1444.88 515.067 1450.64 516.24 1456.83 516.24C1464.51 516.24 1471.12 514.853 1476.67 512.08C1482.22 509.2 1487.66 505.2 1492.99 500.08L1501.31 508.24ZM1600.71 475.6H1536.07V526H1523.43V414H1536.07V463.76H1600.71V414H1613.35V526H1600.71V475.6ZM1646.12 414H1658.76V526H1646.12V414ZM1701.32 442C1701.32 444.667 1701.75 447.067 1702.6 449.2C1703.45 451.333 1705 453.307 1707.24 455.12C1709.48 456.827 1712.57 458.427 1716.52 459.92C1720.47 461.307 1725.53 462.64 1731.72 463.92C1744.2 466.693 1753.37 470.533 1759.24 475.44C1765.21 480.347 1768.2 487.12 1768.2 495.76C1768.2 500.56 1767.24 504.933 1765.32 508.88C1763.4 512.827 1760.73 516.187 1757.32 518.96C1754.01 521.733 1750.01 523.867 1745.32 525.36C1740.63 526.853 1735.51 527.6 1729.96 527.6C1721 527.6 1712.79 526.16 1705.32 523.28C1697.96 520.293 1690.92 515.76 1684.2 509.68L1692.04 500.4C1697.91 505.733 1703.83 509.733 1709.8 512.4C1715.77 514.96 1722.65 516.24 1730.44 516.24C1738.01 516.24 1744.04 514.48 1748.52 510.96C1753.11 507.44 1755.4 502.8 1755.4 497.04C1755.4 494.373 1754.97 492.027 1754.12 490C1753.27 487.867 1751.77 485.947 1749.64 484.24C1747.51 482.533 1744.52 480.987 1740.68 479.6C1736.95 478.213 1732.15 476.88 1726.28 475.6C1719.88 474.213 1714.28 472.613 1709.48 470.8C1704.79 468.987 1700.89 466.8 1697.8 464.24C1694.71 461.68 1692.41 458.693 1690.92 455.28C1689.43 451.867 1688.68 447.813 1688.68 443.12C1688.68 438.64 1689.59 434.533 1691.4 430.8C1693.21 427.067 1695.77 423.867 1699.08 421.2C1702.39 418.427 1706.28 416.293 1710.76 414.8C1715.24 413.2 1720.15 412.4 1725.48 412.4C1733.69 412.4 1740.84 413.573 1746.92 415.92C1753.11 418.16 1759.08 421.573 1764.84 426.16L1757.48 435.92C1752.25 431.653 1746.97 428.56 1741.64 426.64C1736.41 424.72 1730.92 423.76 1725.16 423.76C1721.53 423.76 1718.23 424.24 1715.24 425.2C1712.36 426.16 1709.85 427.44 1707.72 429.04C1705.69 430.64 1704.09 432.56 1702.92 434.8C1701.85 437.04 1701.32 439.44 1701.32 442ZM1874.86 414V425.52H1806.54V463.76H1867.66V475.28H1806.54V514.48H1875.66V526H1793.9V414H1874.86ZM1943.49 425.68V526H1930.69V425.68H1893.09V414H1981.09V425.68H1943.49Z" fill="white"/>
</svg>
