<svg width="946" height="1124" viewBox="0 0 946 1124" fill="none" xmlns="http://www.w3.org/2000/svg">
<rect width="946" height="1124" fill="white"/>
<path d="M92.0555 87.69V95.1633C92.0555 99.2736 89.3332 102.637 85.2229 102.637L92.0555 117.583H86.4506L79.5646 102.637H74.6002V117.583H69.6358V80.2168H84.5823C88.6926 80.2168 92.0555 83.5264 92.0555 87.69ZM74.6002 85.1812V97.6721H83.3546C85.383 97.6721 87.0912 95.964 87.0912 93.9355V88.9178C87.0912 86.8359 85.383 85.1812 83.3546 85.1812H74.6002ZM111.034 80.2168L119.788 117.583H114.824L112.956 109.576H104.255L102.333 117.583H97.3686L106.07 80.2168H111.034ZM105.376 104.612H111.781L108.632 90.9996L105.376 104.612ZM142.557 80.2168H147.521V117.583H141.916L130.066 91.3733V117.583H125.101V80.2168H130.653L142.557 106.533V80.2168ZM152.834 80.2168H167.781C171.891 80.2168 175.254 83.5264 175.254 87.69V110.11C175.254 114.273 171.891 117.583 167.781 117.583H152.834V80.2168ZM170.289 108.882V88.9178C170.289 86.8359 168.581 85.1812 166.553 85.1812H157.798V112.619H166.553C168.581 112.619 170.289 110.964 170.289 108.882ZM193.45 80.2168L202.205 117.583H197.24L195.372 109.576H186.671L184.749 117.583H179.785L188.486 80.2168H193.45ZM187.792 104.612H194.198L191.048 90.9996L187.792 104.612ZM207.518 80.2168H212.482V80.2702H212.535V112.565H229.937V117.583H207.518V80.2168ZM234.208 80.2168H239.172V80.2702H239.225V112.565H256.627V117.583H234.208V80.2168ZM287.908 80.2168L296.663 117.583H291.698L289.83 109.576H281.129L279.207 117.583H274.243L282.944 80.2168H287.908ZM282.25 104.612H288.656L285.506 90.9996L282.25 104.612ZM299.578 80.2168H304.542L310.734 106.907L317.033 80.2168H321.998L313.297 117.583H308.279L299.578 80.2168ZM317.033 80.2702H321.998L313.297 117.53H308.332L299.631 80.2702H304.596L310.788 106.907L317.033 80.2702ZM327.415 80.2168H349.835V85.1812H332.379V95.9106H347.326V100.875H332.379V112.619H349.835V117.583H327.415V80.2168ZM349.835 85.2345H332.433V95.9106H347.326V100.875H332.433V112.565H349.835V117.53H327.468V80.2702H349.835V85.2345ZM372.603 80.2168H377.567V117.583H371.962L360.112 91.3733V117.583H355.148V80.2168H360.699L372.603 106.533V80.2168ZM400.175 80.2168H405.033V106.8C405.033 112.939 400.122 118.117 393.983 118.117C387.845 118.117 382.88 112.939 382.88 106.8V80.2168H387.738V106.8C387.738 110.217 390.567 113.099 393.983 113.099C397.346 113.099 400.175 110.163 400.175 106.8V80.2168ZM410.352 80.2168H432.772V85.1812H415.317V95.9106H430.263V100.875H415.317V112.619H432.772V117.583H410.352V80.2168ZM432.772 85.2345H415.37V95.9106H430.263V100.875H415.37V112.565H432.772V117.53H410.406V80.2702H432.772V85.2345ZM436.484 123.188V111.978H442.089V117.583L436.484 123.188ZM476.601 80.2168H481.565V117.583H475.96L464.11 91.3733V117.583H459.145V80.2168H464.697L476.601 106.533V80.2168ZM486.878 80.2168H509.298V85.1812H491.842V95.9106H506.789V100.875H491.842V112.619H509.298V117.583H486.878V80.2168ZM509.298 85.2345H491.896V95.9106H506.789V100.875H491.896V112.565H509.298V117.53H486.931V80.2702H509.298V85.2345ZM526.034 118.117C520.002 118.117 515.091 114.113 514.611 107.548H519.629V107.975C519.629 111.124 522.618 113.259 525.927 113.259C529.344 113.259 531.746 111.124 531.746 107.921C531.746 99.6472 514.718 101.355 514.718 90.7327C514.718 83.6865 518.881 79.7897 525.821 79.7364C531.959 79.683 536.016 84.2737 536.337 90.359H531.426C531.319 86.8893 528.81 84.7007 525.5 84.7007C522.031 84.7007 519.575 86.4089 519.575 89.7719C519.575 98.9533 536.764 94.9498 536.764 107.548C536.764 113.633 531.853 118.117 526.034 118.117ZM541.457 80.2168H563.877V85.1812H555.176V117.583H550.158V85.1812H541.457V80.2168ZM569.19 80.2168H574.154V80.2702H574.208V112.565H591.61V117.583H569.19V80.2168ZM595.88 80.2168H618.3V85.1812H600.845V95.9106H615.791V100.875H600.845V112.619H618.3V117.583H595.88V80.2168ZM618.3 85.2345H600.898V95.9106H615.791V100.875H600.898V112.565H618.3V117.53H595.934V80.2702H618.3V85.2345ZM623.613 80.2168H638.559C642.67 80.2168 646.033 83.5264 646.033 87.69V110.11C646.033 114.273 642.67 117.583 638.559 117.583H623.613V80.2168ZM641.068 108.882V88.9178C641.068 86.8359 639.36 85.1812 637.332 85.1812H628.577V112.619H637.332C639.36 112.619 641.068 110.964 641.068 108.882ZM670.029 80.2168V117.583H664.691V80.2168H670.029ZM692.833 80.2168H697.797V117.583H692.192L680.342 91.3733V117.583H675.377V80.2168H680.929L692.833 106.533V80.2168ZM92.1089 136.217H97.1267V173.583H92.1089V149.295L85.8634 165.576H80.8457L74.6536 149.295V173.583H69.6358V136.217H74.6536L83.4079 159.01L92.1089 136.217ZM92.0555 136.27H97.0199V173.53H92.0555V149.295L85.81 165.523H80.8457L74.6536 149.295V173.53H69.6892V136.27H74.6536L83.3546 159.01L92.0555 136.27ZM113.58 135.683C119.826 135.683 124.63 140.968 124.63 147.106V162.693C124.63 168.832 119.826 174.117 113.58 174.117C107.281 174.117 102.477 168.939 102.477 162.693V147.106C102.477 140.861 107.281 135.683 113.58 135.683ZM119.826 162.693V147.106C119.826 143.583 117.103 140.754 113.58 140.754C110.057 140.754 107.281 143.53 107.281 147.106V162.693C107.281 166.27 110.057 169.046 113.58 169.046C117.103 169.046 119.826 166.217 119.826 162.693ZM147.405 136.217H152.369V173.583H146.764L134.914 147.373V173.583H129.949V136.217H135.501L147.405 162.533V136.217ZM157.682 136.217H180.102V141.181H171.401V173.583H166.383V141.181H157.682V136.217ZM207.835 143.69V151.163C207.835 155.274 205.112 158.637 201.002 158.637L207.835 173.583H202.23L195.344 158.637H190.379V173.583H185.415V136.217H200.361C204.472 136.217 207.835 139.526 207.835 143.69ZM190.379 141.181V153.672H199.134C201.162 153.672 202.87 151.964 202.87 149.936V144.918C202.87 142.836 201.162 141.181 199.134 141.181H190.379ZM213.148 136.217H235.567V141.181H218.112V151.911H233.058V156.875H218.112V168.619H235.567V173.583H213.148V136.217ZM235.567 141.235H218.165V151.911H233.058V156.875H218.165V168.565H235.567V173.53H213.201V136.27H235.567V141.235ZM229.322 131.679L222.009 135.096L220.728 132.8L227.293 128.21L229.322 131.679ZM254.546 136.217L263.3 173.583H258.336L256.467 165.576H247.766L245.845 173.583H240.88L249.581 136.217H254.546ZM248.887 160.612H255.293L252.144 147L248.887 160.612ZM268.613 136.217H273.577V136.27H273.631V168.565H291.033V173.583H268.613V136.217ZM293.702 179.188V167.978H299.307V173.583L293.702 179.188ZM316.363 136.217H331.31C335.42 136.217 338.783 139.526 338.783 143.69V151.163C338.783 155.274 335.42 158.637 331.31 158.637H321.328V173.583H316.363V136.217ZM333.819 149.936V144.918C333.819 142.836 332.111 141.181 330.082 141.181H321.328V153.672H330.082C332.111 153.672 333.819 151.964 333.819 149.936ZM366.516 143.69V151.163C366.516 155.274 363.793 158.637 359.683 158.637L366.516 173.583H360.911L354.025 158.637H349.061V173.583H344.096V136.217H359.043C363.153 136.217 366.516 139.526 366.516 143.69ZM349.061 141.181V153.672H357.815C359.843 153.672 361.552 151.964 361.552 149.936V144.918C361.552 142.836 359.843 141.181 357.815 141.181H349.061ZM382.932 135.683C389.177 135.683 393.982 140.968 393.982 147.106V162.693C393.982 168.832 389.177 174.117 382.932 174.117C376.633 174.117 371.829 168.939 371.829 162.693V147.106C371.829 140.861 376.633 135.683 382.932 135.683ZM389.177 162.693V147.106C389.177 143.583 386.455 140.754 382.932 140.754C379.409 140.754 376.633 143.53 376.633 147.106V162.693C376.633 166.27 379.409 169.046 382.932 169.046C386.455 169.046 389.177 166.217 389.177 162.693ZM416.596 136.217H421.454V162.8C421.454 168.939 416.543 174.117 410.404 174.117C404.265 174.117 399.301 168.939 399.301 162.8V136.217H404.159V162.8C404.159 166.217 406.988 169.099 410.404 169.099C413.767 169.099 416.596 166.163 416.596 162.8V136.217ZM426.773 136.217H441.72C445.83 136.217 449.193 139.526 449.193 143.69V166.11C449.193 170.273 445.83 173.583 441.72 173.583H426.773V136.217ZM444.228 164.882V144.918C444.228 142.836 442.52 141.181 440.492 141.181H431.737V168.619H440.492C442.52 168.619 444.228 166.964 444.228 164.882ZM454.506 136.217H459.47V136.27H459.524V168.565H476.926V173.583H454.506V136.217ZM494.69 136.217H499.654L490.953 154.9V173.583H485.935V154.9L477.234 136.217H482.199L488.497 149.562L494.69 136.217ZM518.312 136.217H540.732V141.181H523.276V151.857H535.767V156.822H523.276V173.583H518.312V136.217ZM540.732 141.181H523.276V151.857H535.767V156.822H523.276V173.583H518.312V136.217H540.732V141.181ZM546.045 136.217H568.464V141.181H551.009V151.911H565.956V156.875H551.009V168.619H568.464V173.583H546.045V136.217ZM568.464 141.235H551.062V151.911H565.956V156.875H551.062V168.565H568.464V173.53H546.098V136.27H568.464V141.235ZM587.443 136.217L596.197 173.583H591.233L589.364 165.576H580.664L578.742 173.583H573.777L582.478 136.217H587.443ZM581.784 160.612H588.19L585.041 147L581.784 160.612ZM599.217 136.217H621.636V141.181H612.935V173.583H607.917V141.181H599.217V136.217ZM644.245 136.217H649.102V162.8C649.102 168.939 644.191 174.117 638.052 174.117C631.914 174.117 626.949 168.939 626.949 162.8V136.217H631.807V162.8C631.807 166.217 634.636 169.099 638.052 169.099C641.415 169.099 644.245 166.163 644.245 162.8V136.217ZM676.841 143.69V151.163C676.841 155.274 674.119 158.637 670.008 158.637L676.841 173.583H671.236L664.35 158.637H659.386V173.583H654.421V136.217H669.368C673.478 136.217 676.841 139.526 676.841 143.69ZM659.386 141.181V153.672H668.14C670.169 153.672 671.877 151.964 671.877 149.936V144.918C671.877 142.836 670.169 141.181 668.14 141.181H659.386ZM682.154 136.217H704.574V141.181H687.118V151.911H702.065V156.875H687.118V168.619H704.574V173.583H682.154V136.217ZM704.574 141.235H687.172V151.911H702.065V156.875H687.172V168.565H704.574V173.53H682.208V136.27H704.574V141.235ZM721.31 174.117C715.278 174.117 710.367 170.113 709.887 163.548H714.905V163.975C714.905 167.124 717.894 169.259 721.203 169.259C724.62 169.259 727.022 167.124 727.022 163.921C727.022 155.647 709.994 157.355 709.994 146.733C709.994 139.687 714.157 135.79 721.097 135.736C727.235 135.683 731.292 140.274 731.613 146.359H726.702C726.595 142.889 724.086 140.701 720.776 140.701C717.307 140.701 714.851 142.409 714.851 145.772C714.851 154.953 732.04 150.95 732.04 163.548C732.04 169.633 727.129 174.117 721.31 174.117ZM750.704 136.217H773.124V141.181H764.423V173.583H759.405V141.181H750.704V136.217ZM795.892 136.217H800.857V173.583H795.892V156.822H783.401V173.583H778.437V136.217H783.401V151.857H795.892V136.217ZM806.17 136.217H828.589V141.181H811.134V151.911H826.08V156.875H811.134V168.619H828.589V173.583H806.17V136.217ZM828.589 141.235H811.187V151.911H826.08V156.875H811.187V168.565H828.589V173.53H806.223V136.27H828.589V141.235ZM73.6393 191.683V202.893H68.0344V197.288L73.6393 191.683ZM81.9133 191.683V202.893H76.3084V197.288L81.9133 191.683ZM108.059 199.69V207.163C108.059 211.274 105.337 214.637 101.227 214.637L108.059 229.583H102.454L95.5682 214.637H90.6039V229.583H85.6395V192.217H100.586C104.696 192.217 108.059 195.526 108.059 199.69ZM90.6039 197.181V209.672H99.3582C101.387 209.672 103.095 207.964 103.095 205.936V200.918C103.095 198.836 101.387 197.181 99.3582 197.181H90.6039ZM127.038 192.217L135.792 229.583H130.828L128.959 221.576H120.258L118.337 229.583H113.372L122.073 192.217H127.038ZM121.379 216.612H127.785L124.635 203L121.379 216.612ZM158.56 192.217H163.525V229.583H157.92L146.069 203.373V229.583H141.105V192.217H146.657L158.56 218.533V192.217ZM168.838 192.217H183.784C187.894 192.217 191.257 195.526 191.257 199.69V222.11C191.257 226.273 187.894 229.583 183.784 229.583H168.838V192.217ZM186.293 220.882V200.918C186.293 198.836 184.585 197.181 182.556 197.181H173.802V224.619H182.556C184.585 224.619 186.293 222.964 186.293 220.882ZM209.454 192.217L218.208 229.583H213.244L211.376 221.576H202.675L200.753 229.583H195.789L204.49 192.217H209.454ZM203.796 216.612H210.201L207.052 203L203.796 216.612ZM223.521 192.217H228.486V192.27H228.539V224.565H245.941V229.583H223.521V192.217ZM250.211 192.217H255.176V192.27H255.229V224.565H272.631V229.583H250.211V192.217ZM269.962 202.893V191.683H275.567V197.288L269.962 202.893ZM278.236 202.893V191.683H283.841V197.288L278.236 202.893ZM303.581 192.217H308.546V192.27H308.599V224.565H326.001V229.583H303.581V192.217ZM335.609 192.217V229.583H330.271V192.217H335.609ZM358.413 192.217H363.378V229.583H357.773L345.922 203.373V229.583H340.958V192.217H346.51L358.413 218.533V192.217ZM368.691 192.217H391.11V197.181H373.655V207.911H388.602V212.875H373.655V224.619H391.11V229.583H368.691V192.217ZM391.11 197.235H373.708V207.911H388.602V212.875H373.708V224.565H391.11V229.53H368.744V192.27H391.11V197.235ZM410.089 192.217L418.843 229.583H413.879L412.01 221.576H403.31L401.388 229.583H396.423L405.124 192.217H410.089ZM404.43 216.612H410.836L407.687 203L404.43 216.612ZM446.576 199.69V207.163C446.576 211.274 443.854 214.637 439.743 214.637L446.576 229.583H440.971L434.085 214.637H429.121V229.583H424.156V192.217H439.103C443.213 192.217 446.576 195.526 446.576 199.69ZM429.121 197.181V209.672H437.875C439.903 209.672 441.612 207.964 441.612 205.936V200.918C441.612 198.836 439.903 197.181 437.875 197.181H429.121ZM465.234 192.217H487.654V197.181H478.953V229.583H473.935V197.181H465.234V192.217ZM510.422 192.217H515.386L506.685 210.9V229.583H501.668V210.9L492.967 192.217H497.931L504.23 205.562L510.422 192.217ZM520.7 192.217H535.646C539.756 192.217 543.119 195.526 543.119 199.69V207.163C543.119 211.274 539.756 214.637 535.646 214.637H525.664V229.583H520.7V192.217ZM538.155 205.936V200.918C538.155 198.836 536.447 197.181 534.418 197.181H525.664V209.672H534.418C536.447 209.672 538.155 207.964 538.155 205.936ZM559.535 191.683C565.781 191.683 570.585 196.968 570.585 203.106V218.693C570.585 224.832 565.781 230.117 559.535 230.117C553.236 230.117 548.432 224.939 548.432 218.693V203.106C548.432 196.861 553.236 191.683 559.535 191.683ZM565.781 218.693V203.106C565.781 199.583 563.058 196.754 559.535 196.754C556.012 196.754 553.236 199.53 553.236 203.106V218.693C553.236 222.27 556.012 225.046 559.535 225.046C563.058 225.046 565.781 222.217 565.781 218.693ZM598.057 203.32H593.253V203.053C593.253 199.583 590.424 196.754 587.007 196.754C583.591 196.754 580.762 199.583 580.762 203.053V218.747C580.762 222.217 583.591 225.046 587.007 225.046C590.424 225.046 593.253 222.217 593.253 218.747V215.971H587.007V210.9H598.057V218.747C598.057 224.886 593.2 230.117 587.007 230.117C580.815 230.117 575.904 224.939 575.904 218.747V203.053C575.904 196.861 580.815 191.683 587.007 191.683C593.2 191.683 598.057 196.914 598.057 203.053V203.32ZM625.796 199.69V207.163C625.796 211.274 623.074 214.637 618.963 214.637L625.796 229.583H620.191L613.305 214.637H608.341V229.583H603.376V192.217H618.323C622.433 192.217 625.796 195.526 625.796 199.69ZM608.341 197.181V209.672H617.095C619.124 209.672 620.832 207.964 620.832 205.936V200.918C620.832 198.836 619.124 197.181 617.095 197.181H608.341ZM644.775 192.217L653.529 229.583H648.565L646.696 221.576H637.995L636.074 229.583H631.109L639.81 192.217H644.775ZM639.116 216.612H645.522L642.372 203L639.116 216.612ZM658.842 192.217H673.788C677.899 192.217 681.262 195.526 681.262 199.69V207.163C681.262 211.274 677.899 214.637 673.788 214.637H663.806V229.583H658.842V192.217ZM676.297 205.936V200.918C676.297 198.836 674.589 197.181 672.561 197.181H663.806V209.672H672.561C674.589 209.672 676.297 207.964 676.297 205.936ZM704.03 192.217H708.994V229.583H704.03V212.822H691.539V229.583H686.575V192.217H691.539V207.857H704.03V192.217ZM731.763 192.217H736.727L728.026 210.9V229.583H723.008V210.9L714.307 192.217H719.272L725.571 205.562L731.763 192.217ZM736.842 235.188V223.978H742.447V229.583L736.842 235.188ZM92.1089 248.217H97.1267L93.3901 285.583H88.3723L83.4079 262.309L78.3902 285.583H73.3724L69.6358 248.217H74.6536L76.7888 269.729L80.8457 250.672H85.8634L89.9737 269.622L92.1089 248.217ZM92.0555 248.27H97.0199L93.2833 285.53H88.3189L83.3546 262.309L78.3902 285.53H73.4258L69.6892 248.27H74.6536L76.7888 269.729L80.8457 250.726H85.81L89.9203 269.622L92.0555 248.27ZM119.933 248.217H124.897V285.583H119.933V268.822H107.442V285.583H102.477V248.217H107.442V263.857H119.933V248.217ZM135.548 248.217V285.583H130.21V248.217H135.548ZM163.049 259.106V259.32H158.245V259.106C158.245 255.583 155.469 252.754 152 252.754C148.53 252.754 145.701 255.583 145.701 259.106V274.693C145.701 278.217 148.53 281.046 152 281.046C155.469 281.046 158.245 278.217 158.245 274.693V274.48H163.049V274.693C163.049 280.886 158.245 286.117 152 286.117C145.701 286.117 140.896 280.939 140.896 274.693V259.106C140.896 252.861 145.701 247.683 152 247.683C158.245 247.683 163.049 252.914 163.049 259.106ZM185.824 248.217H190.788V285.583H185.824V268.822H173.333V285.583H168.369V248.217H173.333V263.857H185.824V248.217ZM220.87 286.117C214.838 286.117 209.927 282.113 209.446 275.548H214.464V275.975C214.464 279.124 217.453 281.259 220.763 281.259C224.179 281.259 226.581 279.124 226.581 275.921C226.581 267.647 209.553 269.355 209.553 258.733C209.553 251.687 213.717 247.79 220.656 247.736C226.795 247.683 230.852 252.274 231.172 258.359H226.261C226.154 254.889 223.646 252.701 220.336 252.701C216.866 252.701 214.411 254.409 214.411 257.772C214.411 266.953 231.599 262.95 231.599 275.548C231.599 281.633 226.688 286.117 220.87 286.117ZM236.918 248.217H259.338V253.181H241.883V263.911H256.829V268.875H241.883V280.619H259.338V285.583H236.918V248.217ZM259.338 253.235H241.936V263.911H256.829V268.875H241.936V280.565H259.338V285.53H236.972V248.27H259.338V253.235ZM278.317 248.217L287.071 285.583H282.107L280.238 277.576H271.537L269.616 285.583H264.651L273.352 248.217H278.317ZM272.658 272.612H279.064L275.914 259L272.658 272.612ZM314.857 248.217H319.875V285.583H314.857V261.295L308.612 277.576H303.594L297.402 261.295V285.583H292.384V248.217H297.402L306.156 271.01L314.857 248.217ZM314.804 248.27H319.768V285.53H314.804V261.295L308.558 277.523H303.594L297.402 261.295V285.53H292.437V248.27H297.402L306.103 271.01L314.804 248.27ZM325.225 248.217H330.19V248.27H330.243V280.565H347.645V285.583H325.225V248.217ZM351.916 248.217H374.335V253.181H356.88V263.911H371.826V268.875H356.88V280.619H374.335V285.583H351.916V248.217ZM374.335 253.235H356.933V263.911H371.826V268.875H356.933V280.565H374.335V285.53H351.969V248.27H374.335V253.235ZM391.072 286.117C385.04 286.117 380.129 282.113 379.648 275.548H384.666V275.975C384.666 279.124 387.655 281.259 390.965 281.259C394.381 281.259 396.783 279.124 396.783 275.921C396.783 267.647 379.755 269.355 379.755 258.733C379.755 251.687 383.919 247.79 390.858 247.736C396.997 247.683 401.054 252.274 401.374 258.359H396.463C396.356 254.889 393.847 252.701 390.538 252.701C387.068 252.701 384.613 254.409 384.613 257.772C384.613 266.953 401.801 262.95 401.801 275.548C401.801 281.633 396.89 286.117 391.072 286.117ZM418.544 286.117C412.512 286.117 407.601 282.113 407.12 275.548H412.138V275.975C412.138 279.124 415.127 281.259 418.437 281.259C421.853 281.259 424.255 279.124 424.255 275.921C424.255 267.647 407.227 269.355 407.227 258.733C407.227 251.687 411.391 247.79 418.33 247.736C424.469 247.683 428.526 252.274 428.846 258.359H423.935C423.828 254.889 421.32 252.701 418.01 252.701C414.54 252.701 412.085 254.409 412.085 257.772C412.085 266.953 429.273 262.95 429.273 275.548C429.273 281.633 424.362 286.117 418.544 286.117ZM434.592 248.217H439.557V248.27H439.61V280.565H457.012V285.583H434.592V248.217ZM474.776 248.217H479.741L471.04 266.9V285.583H466.022V266.9L457.321 248.217H462.285L468.584 261.562L474.776 248.217ZM520.551 259.106V259.32H515.747V259.106C515.747 255.583 512.971 252.754 509.502 252.754C506.032 252.754 503.203 255.583 503.203 259.106V274.693C503.203 278.217 506.032 281.046 509.502 281.046C512.971 281.046 515.747 278.217 515.747 274.693V274.48H520.551V274.693C520.551 280.886 515.747 286.117 509.502 286.117C503.203 286.117 498.399 280.939 498.399 274.693V259.106C498.399 252.861 503.203 247.683 509.502 247.683C515.747 247.683 520.551 252.914 520.551 259.106ZM536.974 247.683C543.219 247.683 548.024 252.968 548.024 259.106V274.693C548.024 280.832 543.219 286.117 536.974 286.117C530.675 286.117 525.871 280.939 525.871 274.693V259.106C525.871 252.861 530.675 247.683 536.974 247.683ZM543.219 274.693V259.106C543.219 255.583 540.497 252.754 536.974 252.754C533.451 252.754 530.675 255.53 530.675 259.106V274.693C530.675 278.27 533.451 281.046 536.974 281.046C540.497 281.046 543.219 278.217 543.219 274.693ZM575.816 248.217H580.834V285.583H575.816V261.295L569.57 277.576H564.553L558.361 261.295V285.583H553.343V248.217H558.361L567.115 271.01L575.816 248.217ZM575.763 248.27H580.727V285.53H575.763V261.295L569.517 277.523H564.553L558.361 261.295V285.53H553.396V248.27H558.361L567.062 271.01L575.763 248.27ZM608.604 255.69V258.893C608.604 263.057 605.241 266.366 601.131 266.366C605.188 266.366 608.604 269.622 608.604 273.786V278.11C608.604 282.22 605.241 285.583 601.131 285.583H586.184V248.217H601.131C605.241 248.217 608.604 251.58 608.604 255.69ZM591.149 262.683H599.903C601.985 262.683 603.64 261.028 603.64 258.946V256.918C603.64 254.836 601.985 253.181 599.903 253.181H591.149V262.683ZM603.64 276.882V273.626C603.64 271.544 601.985 269.889 599.903 269.889H591.149V280.619H599.903C601.985 280.619 603.64 278.964 603.64 276.882ZM619.255 248.217V285.583H613.917V248.217H619.255ZM642.059 248.217H647.023V285.583H641.418L629.568 259.373V285.583H624.603V248.217H630.155L642.059 274.533V248.217ZM652.336 248.217H674.756V253.181H657.301V263.911H672.247V268.875H657.301V280.619H674.756V285.583H652.336V248.217ZM674.756 253.235H657.354V263.911H672.247V268.875H657.354V280.565H674.756V285.53H652.39V248.27H674.756V253.235ZM691.492 286.117C685.46 286.117 680.549 282.113 680.069 275.548H685.087V275.975C685.087 279.124 688.076 281.259 691.386 281.259C694.802 281.259 697.204 279.124 697.204 275.921C697.204 267.647 680.176 269.355 680.176 258.733C680.176 251.687 684.339 247.79 691.279 247.736C697.418 247.683 701.474 252.274 701.795 258.359H696.884C696.777 254.889 694.268 252.701 690.959 252.701C687.489 252.701 685.033 254.409 685.033 257.772C685.033 266.953 702.222 262.95 702.222 275.548C702.222 281.633 697.311 286.117 691.492 286.117ZM720.886 248.217H743.306V253.181H734.605V285.583H729.587V253.181H720.886V248.217ZM766.074 248.217H771.039V285.583H766.074V268.822H753.583V285.583H748.619V248.217H753.583V263.857H766.074V248.217ZM776.352 248.217H798.771V253.181H781.316V263.911H796.262V268.875H781.316V280.619H798.771V285.583H776.352V248.217ZM798.771 253.235H781.369V263.911H796.262V268.875H781.369V280.565H798.771V285.53H776.405V248.27H798.771V253.235ZM69.6358 304.217H84.5823C88.6926 304.217 92.0555 307.526 92.0555 311.69V334.11C92.0555 338.273 88.6926 341.583 84.5823 341.583H69.6358V304.217ZM87.0912 332.882V312.918C87.0912 310.836 85.383 309.181 83.3546 309.181H74.6002V336.619H83.3546C85.383 336.619 87.0912 334.964 87.0912 332.882ZM97.3686 304.217H119.788V309.181H102.333V319.911H117.279V324.875H102.333V336.619H119.788V341.583H97.3686V304.217ZM119.788 309.235H102.386V319.911H117.279V324.875H102.386V336.565H119.788V341.53H97.4219V304.27H119.788V309.235ZM136.525 342.117C130.493 342.117 125.582 338.113 125.101 331.548H130.119V331.975C130.119 335.124 133.108 337.259 136.418 337.259C139.834 337.259 142.236 335.124 142.236 331.921C142.236 323.647 125.208 325.355 125.208 314.733C125.208 307.687 129.372 303.79 136.311 303.736C142.45 303.683 146.507 308.274 146.827 314.359H141.916C141.809 310.889 139.3 308.701 135.991 308.701C132.521 308.701 130.066 310.409 130.066 313.772C130.066 322.953 147.254 318.95 147.254 331.548C147.254 337.633 142.343 342.117 136.525 342.117ZM157.911 304.217V341.583H152.573V304.217H157.911ZM185.413 315.32H180.608V315.053C180.608 311.583 177.779 308.754 174.363 308.754C170.947 308.754 168.117 311.583 168.117 315.053V330.747C168.117 334.217 170.947 337.046 174.363 337.046C177.779 337.046 180.608 334.217 180.608 330.747V327.971H174.363V322.9H185.413V330.747C185.413 336.886 180.555 342.117 174.363 342.117C168.171 342.117 163.26 336.939 163.26 330.747V315.053C163.26 308.861 168.171 303.683 174.363 303.683C180.555 303.683 185.413 308.914 185.413 315.053V315.32ZM208.187 304.217H213.152V341.583H207.547L195.696 315.373V341.583H190.732V304.217H196.284L208.187 330.533V304.217ZM231.81 304.217H246.756C250.867 304.217 254.23 307.526 254.23 311.69V319.163C254.23 323.274 250.867 326.637 246.756 326.637H236.774V341.583H231.81V304.217ZM249.265 317.936V312.918C249.265 310.836 247.557 309.181 245.529 309.181H236.774V321.672H245.529C247.557 321.672 249.265 319.964 249.265 317.936ZM281.962 311.69V319.163C281.962 323.274 279.24 326.637 275.13 326.637L281.962 341.583H276.357L269.471 326.637H264.507V341.583H259.543V304.217H274.489C278.599 304.217 281.962 307.526 281.962 311.69ZM264.507 309.181V321.672H273.261C275.29 321.672 276.998 319.964 276.998 317.936V312.918C276.998 310.836 275.29 309.181 273.261 309.181H264.507ZM292.613 304.217V341.583H287.275V304.217H292.613ZM315.417 304.217H320.382V341.583H314.777L302.926 315.373V341.583H297.962V304.217H303.513L315.417 330.533V304.217ZM347.847 315.106V315.32H343.043V315.106C343.043 311.583 340.267 308.754 336.798 308.754C333.328 308.754 330.499 311.583 330.499 315.106V330.693C330.499 334.217 333.328 337.046 336.798 337.046C340.267 337.046 343.043 334.217 343.043 330.693V330.48H347.847V330.693C347.847 336.886 343.043 342.117 336.798 342.117C330.499 342.117 325.695 336.939 325.695 330.693V315.106C325.695 308.861 330.499 303.683 336.798 303.683C343.043 303.683 347.847 308.914 347.847 315.106ZM358.505 304.217V341.583H353.167V304.217H358.505ZM363.853 304.217H378.8C382.91 304.217 386.273 307.526 386.273 311.69V319.163C386.273 323.274 382.91 326.637 378.8 326.637H368.817V341.583H363.853V304.217ZM381.308 317.936V312.918C381.308 310.836 379.6 309.181 377.572 309.181H368.817V321.672H377.572C379.6 321.672 381.308 319.964 381.308 317.936ZM391.586 304.217H396.55V304.27H396.604V336.565H414.006V341.583H391.586V304.217ZM418.276 304.217H440.696V309.181H423.24V319.911H438.187V324.875H423.24V336.619H440.696V341.583H418.276V304.217ZM440.696 309.235H423.294V319.911H438.187V324.875H423.294V336.565H440.696V341.53H418.329V304.27H440.696V309.235ZM457.432 342.117C451.4 342.117 446.489 338.113 446.009 331.548H451.026V331.975C451.026 335.124 454.016 337.259 457.325 337.259C460.742 337.259 463.144 335.124 463.144 331.921C463.144 323.647 446.115 325.355 446.115 314.733C446.115 307.687 450.279 303.79 457.219 303.736C463.357 303.683 467.414 308.274 467.735 314.359H462.824C462.717 310.889 460.208 308.701 456.898 308.701C453.429 308.701 450.973 310.409 450.973 313.772C450.973 322.953 468.162 318.95 468.162 331.548C468.162 337.633 463.251 342.117 457.432 342.117ZM497.929 303.683C504.175 303.683 508.979 308.968 508.979 315.106V330.693C508.979 336.832 504.175 342.117 497.929 342.117C491.63 342.117 486.826 336.939 486.826 330.693V315.106C486.826 308.861 491.63 303.683 497.929 303.683ZM504.175 330.693V315.106C504.175 311.583 501.452 308.754 497.929 308.754C494.406 308.754 491.63 311.53 491.63 315.106V330.693C491.63 334.27 494.406 337.046 497.929 337.046C501.452 337.046 504.175 334.217 504.175 330.693ZM514.298 304.217H536.718V309.181H519.262V319.857H531.753V324.822H519.262V341.583H514.298V304.217ZM536.718 309.181H519.262V319.857H531.753V324.822H519.262V341.583H514.298V304.217H536.718V309.181ZM577.796 311.69V314.893C577.796 319.057 574.433 322.366 570.322 322.366C574.379 322.366 577.796 325.622 577.796 329.786V334.11C577.796 338.22 574.433 341.583 570.322 341.583H555.376V304.217H570.322C574.433 304.217 577.796 307.58 577.796 311.69ZM560.34 318.683H569.095C571.176 318.683 572.831 317.028 572.831 314.946V312.918C572.831 310.836 571.176 309.181 569.095 309.181H560.34V318.683ZM572.831 332.882V329.626C572.831 327.544 571.176 325.889 569.095 325.889H560.34V336.619H569.095C571.176 336.619 572.831 334.964 572.831 332.882ZM594.212 303.683C600.457 303.683 605.261 308.968 605.261 315.106V330.693C605.261 336.832 600.457 342.117 594.212 342.117C587.913 342.117 583.109 336.939 583.109 330.693V315.106C583.109 308.861 587.913 303.683 594.212 303.683ZM600.457 330.693V315.106C600.457 311.583 597.735 308.754 594.212 308.754C590.689 308.754 587.913 311.53 587.913 315.106V330.693C587.913 334.27 590.689 337.046 594.212 337.046C597.735 337.046 600.457 334.217 600.457 330.693ZM609.382 304.217H631.801V309.181H623.1V341.583H618.083V309.181H609.382V304.217ZM654.57 304.217H659.534V341.583H654.57V324.822H642.079V341.583H637.114V304.217H642.079V319.857H654.57V304.217ZM678.192 304.217H700.612V309.181H691.911V341.583H686.893V309.181H678.192V304.217ZM723.38 304.217H728.345V341.583H723.38V324.822H710.889V341.583H705.925V304.217H710.889V319.857H723.38V304.217ZM733.658 304.217H756.078V309.181H738.622V319.911H753.569V324.875H738.622V336.619H756.078V341.583H733.658V304.217ZM756.078 309.235H738.676V319.911H753.569V324.875H738.676V336.565H756.078V341.53H733.711V304.27H756.078V309.235ZM81.0592 398.117C75.0272 398.117 70.1162 394.113 69.6358 387.548H74.6536V387.975C74.6536 391.124 77.6429 393.259 80.9524 393.259C84.3688 393.259 86.7709 391.124 86.7709 387.921C86.7709 379.647 69.7426 381.355 69.7426 370.733C69.7426 363.687 73.9062 359.79 80.8457 359.736C86.9844 359.683 91.0413 364.274 91.3616 370.359H86.4506C86.3439 366.889 83.835 364.701 80.5254 364.701C77.0557 364.701 74.6002 366.409 74.6002 369.772C74.6002 378.953 91.7886 374.95 91.7886 387.548C91.7886 393.633 86.8777 398.117 81.0592 398.117ZM119.008 360.217H124.025L120.289 397.583H115.271L110.307 374.309L105.289 397.583H100.271L96.5345 360.217H101.552L103.687 381.729L107.744 362.672H112.762L116.872 381.622L119.008 360.217ZM118.954 360.27H123.919L120.182 397.53H115.218L110.253 374.309L105.289 397.53H100.324L96.5879 360.27H101.552L103.687 381.729L107.744 362.726H112.709L116.819 381.622L118.954 360.27ZM134.714 360.217V397.583H129.376V360.217H134.714ZM151.486 398.117C145.454 398.117 140.543 394.113 140.062 387.548H145.08V387.975C145.08 391.124 148.069 393.259 151.379 393.259C154.795 393.259 157.197 391.124 157.197 387.921C157.197 379.647 140.169 381.355 140.169 370.733C140.169 363.687 144.333 359.79 151.272 359.736C157.411 359.683 161.468 364.274 161.788 370.359H156.877C156.77 366.889 154.262 364.701 150.952 364.701C147.482 364.701 145.027 366.409 145.027 369.772C145.027 378.953 162.215 374.95 162.215 387.548C162.215 393.633 157.304 398.117 151.486 398.117ZM178.958 398.117C172.926 398.117 168.015 394.113 167.534 387.548H172.552V387.975C172.552 391.124 175.542 393.259 178.851 393.259C182.267 393.259 184.67 391.124 184.67 387.921C184.67 379.647 167.641 381.355 167.641 370.733C167.641 363.687 171.805 359.79 178.744 359.736C184.883 359.683 188.94 364.274 189.26 370.359H184.349C184.243 366.889 181.734 364.701 178.424 364.701C174.954 364.701 172.499 366.409 172.499 369.772C172.499 378.953 189.687 374.95 189.687 387.548C189.687 393.633 184.776 398.117 178.958 398.117ZM222.017 360.217L230.771 397.583H225.807L223.939 389.576H215.238L213.316 397.583H208.352L217.053 360.217H222.017ZM216.359 384.612H222.764L219.615 371L216.359 384.612ZM253.54 360.217H258.504V397.583H252.899L241.049 371.373V397.583H236.084V360.217H241.636L253.54 386.533V360.217ZM263.817 360.217H278.764C282.874 360.217 286.237 363.526 286.237 367.69V390.11C286.237 394.273 282.874 397.583 278.764 397.583H263.817V360.217ZM281.273 388.882V368.918C281.273 366.836 279.564 365.181 277.536 365.181H268.782V392.619H277.536C279.564 392.619 281.273 390.964 281.273 388.882ZM327.048 371.32H322.244V371.053C322.244 367.583 319.414 364.754 315.998 364.754C312.582 364.754 309.753 367.583 309.753 371.053V386.747C309.753 390.217 312.582 393.046 315.998 393.046C319.414 393.046 322.244 390.217 322.244 386.747V383.971H315.998V378.9H327.048V386.747C327.048 392.886 322.19 398.117 315.998 398.117C309.806 398.117 304.895 392.939 304.895 386.747V371.053C304.895 364.861 309.806 359.683 315.998 359.683C322.19 359.683 327.048 364.914 327.048 371.053V371.32ZM332.367 360.217H354.787V365.181H337.331V375.911H352.278V380.875H337.331V392.619H354.787V397.583H332.367V360.217ZM354.787 365.235H337.385V375.911H352.278V380.875H337.385V392.565H354.787V397.53H332.42V360.27H354.787V365.235ZM382.52 367.69V375.163C382.52 379.274 379.797 382.637 375.687 382.637L382.52 397.583H376.915L370.029 382.637H365.064V397.583H360.1V360.217H375.046C379.157 360.217 382.52 363.526 382.52 367.69ZM365.064 365.181V377.672H373.819C375.847 377.672 377.555 375.964 377.555 373.936V368.918C377.555 366.836 375.847 365.181 373.819 365.181H365.064ZM410.306 360.217H415.323V397.583H410.306V373.295L404.06 389.576H399.042L392.85 373.295V397.583H387.833V360.217H392.85L401.605 383.01L410.306 360.217ZM410.252 360.27H415.217V397.53H410.252V373.295L404.007 389.523H399.042L392.85 373.295V397.53H387.886V360.27H392.85L401.551 383.01L410.252 360.27ZM434.339 360.217L443.094 397.583H438.129L436.261 389.576H427.56L425.638 397.583H420.674L429.375 360.217H434.339ZM428.681 384.612H435.087L431.937 371L428.681 384.612ZM465.862 360.217H470.826V397.583H465.221L453.371 371.373V397.583H448.407V360.217H453.958L465.862 386.533V360.217ZM489.485 360.217H511.904V365.181H503.203V397.583H498.185V365.181H489.485V360.217ZM534.673 360.217H539.637L530.936 378.9V397.583H525.918V378.9L517.217 360.217H522.182L528.481 373.562L534.673 360.217ZM544.95 360.217H559.896C564.007 360.217 567.37 363.526 567.37 367.69V375.163C567.37 379.274 564.007 382.637 559.896 382.637H549.914V397.583H544.95V360.217ZM562.405 373.936V368.918C562.405 366.836 560.697 365.181 558.669 365.181H549.914V377.672H558.669C560.697 377.672 562.405 375.964 562.405 373.936ZM583.786 359.683C590.031 359.683 594.836 364.968 594.836 371.106V386.693C594.836 392.832 590.031 398.117 583.786 398.117C577.487 398.117 572.683 392.939 572.683 386.693V371.106C572.683 364.861 577.487 359.683 583.786 359.683ZM590.031 386.693V371.106C590.031 367.583 587.309 364.754 583.786 364.754C580.263 364.754 577.487 367.53 577.487 371.106V386.693C577.487 390.27 580.263 393.046 583.786 393.046C587.309 393.046 590.031 390.217 590.031 386.693ZM622.308 371.32H617.503V371.053C617.503 367.583 614.674 364.754 611.258 364.754C607.842 364.754 605.012 367.583 605.012 371.053V386.747C605.012 390.217 607.842 393.046 611.258 393.046C614.674 393.046 617.503 390.217 617.503 386.747V383.971H611.258V378.9H622.308V386.747C622.308 392.886 617.45 398.117 611.258 398.117C605.066 398.117 600.155 392.939 600.155 386.747V371.053C600.155 364.861 605.066 359.683 611.258 359.683C617.45 359.683 622.308 364.914 622.308 371.053V371.32ZM650.047 367.69V375.163C650.047 379.274 647.324 382.637 643.214 382.637L650.047 397.583H644.442L637.556 382.637H632.591V397.583H627.627V360.217H642.573C646.684 360.217 650.047 363.526 650.047 367.69ZM632.591 365.181V377.672H641.346C643.374 377.672 645.082 375.964 645.082 373.936V368.918C645.082 366.836 643.374 365.181 641.346 365.181H632.591ZM669.025 360.217L677.779 397.583H672.815L670.947 389.576H662.246L660.324 397.583H655.36L664.061 360.217H669.025ZM663.367 384.612H669.772L666.623 371L663.367 384.612ZM683.092 360.217H698.039C702.149 360.217 705.512 363.526 705.512 367.69V375.163C705.512 379.274 702.149 382.637 698.039 382.637H688.057V397.583H683.092V360.217ZM700.548 373.936V368.918C700.548 366.836 698.84 365.181 696.811 365.181H688.057V377.672H696.811C698.84 377.672 700.548 375.964 700.548 373.936ZM728.281 360.217H733.245V397.583H728.281V380.822H715.79V397.583H710.825V360.217H715.79V375.857H728.281V360.217ZM743.896 360.217V397.583H738.558V360.217H743.896ZM771.397 371.106V371.32H766.593V371.106C766.593 367.583 763.817 364.754 760.348 364.754C756.878 364.754 754.049 367.583 754.049 371.106V386.693C754.049 390.217 756.878 393.046 760.348 393.046C763.817 393.046 766.593 390.217 766.593 386.693V386.48H771.397V386.693C771.397 392.886 766.593 398.117 760.348 398.117C754.049 398.117 749.244 392.939 749.244 386.693V371.106C749.244 364.861 754.049 359.683 760.348 359.683C766.593 359.683 771.397 364.914 771.397 371.106ZM69.6358 416.217H92.0555V421.181H83.3546V453.583H78.3368V421.181H69.6358V416.217ZM119.788 423.69V431.163C119.788 435.274 117.066 438.637 112.956 438.637L119.788 453.583H114.183L107.297 438.637H102.333V453.583H97.3686V416.217H112.315C116.425 416.217 119.788 419.526 119.788 423.69ZM102.333 421.181V433.672H111.087C113.116 433.672 114.824 431.964 114.824 429.936V424.918C114.824 422.836 113.116 421.181 111.087 421.181H102.333ZM138.767 416.217L147.521 453.583H142.557L140.688 445.576H131.987L130.066 453.583H125.101L133.802 416.217H138.767ZM133.108 440.612H139.514L136.365 427L133.108 440.612ZM152.834 416.217H167.781C171.891 416.217 175.254 419.526 175.254 423.69V446.11C175.254 450.273 171.891 453.583 167.781 453.583H152.834V416.217ZM170.289 444.882V424.918C170.289 422.836 168.581 421.181 166.553 421.181H157.798V448.619H166.553C168.581 448.619 170.289 446.964 170.289 444.882ZM185.905 416.217V453.583H180.567V416.217H185.905ZM191.253 416.217H213.673V421.181H204.972V453.583H199.954V421.181H191.253V416.217ZM224.324 416.217V453.583H218.986V416.217H224.324ZM240.776 415.683C247.021 415.683 251.825 420.968 251.825 427.106V442.693C251.825 448.832 247.021 454.117 240.776 454.117C234.477 454.117 229.672 448.939 229.672 442.693V427.106C229.672 420.861 234.477 415.683 240.776 415.683ZM247.021 442.693V427.106C247.021 423.583 244.299 420.754 240.776 420.754C237.253 420.754 234.477 423.53 234.477 427.106V442.693C234.477 446.27 237.253 449.046 240.776 449.046C244.299 449.046 247.021 446.217 247.021 442.693ZM274.6 416.217H279.564V453.583H273.959L262.109 427.373V453.583H257.145V416.217H262.696L274.6 442.533V416.217ZM296.301 454.117C290.269 454.117 285.358 450.113 284.877 443.548H289.895V443.975C289.895 447.124 292.884 449.259 296.194 449.259C299.61 449.259 302.012 447.124 302.012 443.921C302.012 435.647 284.984 437.355 284.984 426.733C284.984 419.687 289.148 415.79 296.087 415.736C302.226 415.683 306.283 420.274 306.603 426.359H301.692C301.585 422.889 299.077 420.701 295.767 420.701C292.297 420.701 289.842 422.409 289.842 425.772C289.842 434.953 307.03 430.95 307.03 443.548C307.03 449.633 302.119 454.117 296.301 454.117ZM310.748 453.583V447.978H316.353V453.583H310.748ZM69.6358 528.217H92.0555V533.181H83.3546V565.583H78.3368V533.181H69.6358V528.217ZM114.824 528.217H119.788V565.583H114.824V548.822H102.333V565.583H97.3686V528.217H102.333V543.857H114.824V528.217ZM130.439 528.217V565.583H125.101V528.217H130.439ZM147.211 566.117C141.179 566.117 136.268 562.113 135.788 555.548H140.806V555.975C140.806 559.124 143.795 561.259 147.104 561.259C150.521 561.259 152.923 559.124 152.923 555.921C152.923 547.647 135.895 549.355 135.895 538.733C135.895 531.687 140.058 527.79 146.998 527.736C153.136 527.683 157.193 532.274 157.514 538.359H152.603C152.496 534.889 149.987 532.701 146.677 532.701C143.208 532.701 140.752 534.409 140.752 537.772C140.752 546.953 157.941 542.95 157.941 555.548C157.941 561.633 153.03 566.117 147.211 566.117ZM176.605 528.217H199.025V533.181H190.324V565.583H185.306V533.181H176.605V528.217ZM221.793 528.217H226.757L218.056 546.9V565.583H213.039V546.9L204.338 528.217H209.302L215.601 541.562L221.793 528.217ZM232.07 528.217H247.017C251.127 528.217 254.49 531.526 254.49 535.69V543.163C254.49 547.274 251.127 550.637 247.017 550.637H237.035V565.583H232.07V528.217ZM249.526 541.936V536.918C249.526 534.836 247.818 533.181 245.789 533.181H237.035V545.672H245.789C247.818 545.672 249.526 543.964 249.526 541.936ZM270.906 527.683C277.152 527.683 281.956 532.968 281.956 539.106V554.693C281.956 560.832 277.152 566.117 270.906 566.117C264.607 566.117 259.803 560.939 259.803 554.693V539.106C259.803 532.861 264.607 527.683 270.906 527.683ZM277.152 554.693V539.106C277.152 535.583 274.429 532.754 270.906 532.754C267.383 532.754 264.607 535.53 264.607 539.106V554.693C264.607 558.27 267.383 561.046 270.906 561.046C274.429 561.046 277.152 558.217 277.152 554.693ZM309.428 539.32H304.624V539.053C304.624 535.583 301.795 532.754 298.378 532.754C294.962 532.754 292.133 535.583 292.133 539.053V554.747C292.133 558.217 294.962 561.046 298.378 561.046C301.795 561.046 304.624 558.217 304.624 554.747V551.971H298.378V546.9H309.428V554.747C309.428 560.886 304.571 566.117 298.378 566.117C292.186 566.117 287.275 560.939 287.275 554.747V539.053C287.275 532.861 292.186 527.683 298.378 527.683C304.571 527.683 309.428 532.914 309.428 539.053V539.32ZM337.167 535.69V543.163C337.167 547.274 334.445 550.637 330.334 550.637L337.167 565.583H331.562L324.676 550.637H319.712V565.583H314.747V528.217H329.694C333.804 528.217 337.167 531.526 337.167 535.69ZM319.712 533.181V545.672H328.466C330.495 545.672 332.203 543.964 332.203 541.936V536.918C332.203 534.836 330.495 533.181 328.466 533.181H319.712ZM356.145 528.217L364.9 565.583H359.935L358.067 557.576H349.366L347.444 565.583H342.48L351.181 528.217H356.145ZM350.487 552.612H356.893L353.743 539L350.487 552.612ZM370.213 528.217H385.159C389.27 528.217 392.633 531.526 392.633 535.69V543.163C392.633 547.274 389.27 550.637 385.159 550.637H375.177V565.583H370.213V528.217ZM387.668 541.936V536.918C387.668 534.836 385.96 533.181 383.932 533.181H375.177V545.672H383.932C385.96 545.672 387.668 543.964 387.668 541.936ZM415.401 528.217H420.365V565.583H415.401V548.822H402.91V565.583H397.946V528.217H402.91V543.857H415.401V528.217ZM431.016 528.217V565.583H425.678V528.217H431.016ZM458.518 539.106V539.32H453.713V539.106C453.713 535.583 450.938 532.754 447.468 532.754C443.998 532.754 441.169 535.583 441.169 539.106V554.693C441.169 558.217 443.998 561.046 447.468 561.046C450.938 561.046 453.713 558.217 453.713 554.693V554.48H458.518V554.693C458.518 560.886 453.713 566.117 447.468 566.117C441.169 566.117 436.365 560.939 436.365 554.693V539.106C436.365 532.861 441.169 527.683 447.468 527.683C453.713 527.683 458.518 532.914 458.518 539.106ZM488.605 566.117C482.573 566.117 477.662 562.113 477.182 555.548H482.2V555.975C482.2 559.124 485.189 561.259 488.499 561.259C491.915 561.259 494.317 559.124 494.317 555.921C494.317 547.647 477.289 549.355 477.289 538.733C477.289 531.687 481.452 527.79 488.392 527.736C494.531 527.683 498.588 532.274 498.908 538.359H493.997C493.89 534.889 491.381 532.701 488.072 532.701C484.602 532.701 482.146 534.409 482.146 537.772C482.146 546.953 499.335 542.95 499.335 555.548C499.335 561.633 494.424 566.117 488.605 566.117ZM504.029 528.217H526.448V533.181H517.747V565.583H512.73V533.181H504.029V528.217ZM549.217 528.217H554.181L545.48 546.9V565.583H540.462V546.9L531.761 528.217H536.726L543.025 541.562L549.217 528.217ZM559.494 528.217H564.458V528.27H564.512V560.565H581.914V565.583H559.494V528.217ZM586.184 528.217H608.604V533.181H591.149V543.911H606.095V548.875H591.149V560.619H608.604V565.583H586.184V528.217ZM608.604 533.235H591.202V543.911H606.095V548.875H591.202V560.565H608.604V565.53H586.238V528.27H608.604V533.235ZM612.316 571.188V559.978H617.92V565.583L612.316 571.188ZM92.1089 584.217H97.1267V621.583H92.1089V597.295L85.8634 613.576H80.8457L74.6536 597.295V621.583H69.6358V584.217H74.6536L83.4079 607.01L92.1089 584.217ZM92.0555 584.27H97.0199V621.53H92.0555V597.295L85.81 613.523H80.8457L74.6536 597.295V621.53H69.6892V584.27H74.6536L83.3546 607.01L92.0555 584.27ZM102.477 584.217H124.897V589.181H107.442V599.911H122.388V604.875H107.442V616.619H124.897V621.583H102.477V584.217ZM124.897 589.235H107.495V599.911H122.388V604.875H107.495V616.565H124.897V621.53H102.531V584.27H124.897V589.235ZM130.21 584.217H152.63V589.181H143.929V621.583H138.911V589.181H130.21V584.217ZM163.281 584.217V621.583H157.943V584.217H163.281ZM190.782 595.106V595.32H185.978V595.106C185.978 591.583 183.202 588.754 179.732 588.754C176.263 588.754 173.433 591.583 173.433 595.106V610.693C173.433 614.217 176.263 617.046 179.732 617.046C183.202 617.046 185.978 614.217 185.978 610.693V610.48H190.782V610.693C190.782 616.886 185.978 622.117 179.732 622.117C173.433 622.117 168.629 616.939 168.629 610.693V595.106C168.629 588.861 173.433 583.683 179.732 583.683C185.978 583.683 190.782 588.914 190.782 595.106ZM213.397 584.217H218.254V610.8C218.254 616.939 213.343 622.117 207.204 622.117C201.066 622.117 196.101 616.939 196.101 610.8V584.217H200.959V610.8C200.959 614.217 203.788 617.099 207.204 617.099C210.567 617.099 213.397 614.163 213.397 610.8V584.217ZM223.573 584.217H228.538V584.27H228.591V616.565H245.993V621.583H223.573V584.217ZM261.367 583.683C267.612 583.683 272.416 588.968 272.416 595.106V610.693C272.416 616.832 267.612 622.117 261.367 622.117C255.068 622.117 250.264 616.939 250.264 610.693V595.106C250.264 588.861 255.068 583.683 261.367 583.683ZM267.612 610.693V595.106C267.612 591.583 264.89 588.754 261.367 588.754C257.844 588.754 255.068 591.53 255.068 595.106V610.693C255.068 614.27 257.844 617.046 261.367 617.046C264.89 617.046 267.612 614.217 267.612 610.693ZM295.031 584.217H299.888V610.8C299.888 616.939 294.977 622.117 288.839 622.117C282.7 622.117 277.736 616.939 277.736 610.8V584.217H282.593V610.8C282.593 614.217 285.422 617.099 288.839 617.099C292.202 617.099 295.031 614.163 295.031 610.8V584.217ZM316.631 622.117C310.599 622.117 305.688 618.113 305.208 611.548H310.225V611.975C310.225 615.124 313.215 617.259 316.524 617.259C319.941 617.259 322.343 615.124 322.343 611.921C322.343 603.647 305.315 605.355 305.315 594.733C305.315 587.687 309.478 583.79 316.418 583.736C322.556 583.683 326.613 588.274 326.934 594.359H322.023C321.916 590.889 319.407 588.701 316.097 588.701C312.628 588.701 310.172 590.409 310.172 593.772C310.172 602.953 327.361 598.95 327.361 611.548C327.361 617.633 322.45 622.117 316.631 622.117ZM332.68 584.217H337.644V584.27H337.698V616.565H355.1V621.583H332.68V584.217ZM372.864 584.217H377.828L369.127 602.9V621.583H364.109V602.9L355.408 584.217H360.373L366.671 597.562L372.864 584.217ZM418.639 595.106V595.32H413.835V595.106C413.835 591.583 411.059 588.754 407.589 588.754C404.119 588.754 401.29 591.583 401.29 595.106V610.693C401.29 614.217 404.119 617.046 407.589 617.046C411.059 617.046 413.835 614.217 413.835 610.693V610.48H418.639V610.693C418.639 616.886 413.835 622.117 407.589 622.117C401.29 622.117 396.486 616.939 396.486 610.693V595.106C396.486 588.861 401.29 583.683 407.589 583.683C413.835 583.683 418.639 588.914 418.639 595.106ZM446.378 591.69V599.163C446.378 603.274 443.655 606.637 439.545 606.637L446.378 621.583H440.773L433.887 606.637H428.922V621.583H423.958V584.217H438.905C443.015 584.217 446.378 587.526 446.378 591.69ZM428.922 589.181V601.672H437.677C439.705 601.672 441.413 599.964 441.413 597.936V592.918C441.413 590.836 439.705 589.181 437.677 589.181H428.922ZM465.356 584.217L474.111 621.583H469.146L467.278 613.576H458.577L456.655 621.583H451.691L460.392 584.217H465.356ZM459.698 608.612H466.104L462.954 595L459.698 608.612ZM479.424 584.217H501.843V589.181H484.388V599.857H496.879V604.822H484.388V621.583H479.424V584.217ZM501.843 589.181H484.388V599.857H496.879V604.822H484.388V621.583H479.424V584.217H501.843V589.181ZM507.156 584.217H529.576V589.181H520.875V621.583H515.857V589.181H507.156V584.217ZM534.889 584.217H557.309V589.181H539.853V599.911H554.8V604.875H539.853V616.619H557.309V621.583H534.889V584.217ZM557.309 589.235H539.907V599.911H554.8V604.875H539.907V616.565H557.309V621.53H534.942V584.27H557.309V589.235ZM562.622 584.217H577.568C581.679 584.217 585.042 587.526 585.042 591.69V614.11C585.042 618.273 581.679 621.583 577.568 621.583H562.622V584.217ZM580.077 612.882V592.918C580.077 590.836 578.369 589.181 576.341 589.181H567.586V616.619H576.341C578.369 616.619 580.077 614.964 580.077 612.882ZM614.803 583.683C621.048 583.683 625.852 588.968 625.852 595.106V610.693C625.852 616.832 621.048 622.117 614.803 622.117C608.504 622.117 603.7 616.939 603.7 610.693V595.106C603.7 588.861 608.504 583.683 614.803 583.683ZM621.048 610.693V595.106C621.048 591.583 618.326 588.754 614.803 588.754C611.28 588.754 608.504 591.53 608.504 595.106V610.693C608.504 614.27 611.28 617.046 614.803 617.046C618.326 617.046 621.048 614.217 621.048 610.693ZM648.627 584.217H653.591V621.583H647.987L636.136 595.373V621.583H631.172V584.217H636.723L648.627 610.533V584.217ZM685.915 584.217L694.669 621.583H689.705L687.837 613.576H679.136L677.214 621.583H672.25L680.951 584.217H685.915ZM680.257 608.612H686.662L683.513 595L680.257 608.612ZM69.6358 640.217H84.5823C88.6926 640.217 92.0555 643.526 92.0555 647.69V655.163C92.0555 659.274 88.6926 662.637 84.5823 662.637H74.6002V677.583H69.6358V640.217ZM87.0912 653.936V648.918C87.0912 646.836 85.383 645.181 83.3546 645.181H74.6002V657.672H83.3546C85.383 657.672 87.0912 655.964 87.0912 653.936ZM119.788 647.69V655.163C119.788 659.274 117.066 662.637 112.956 662.637L119.788 677.583H114.183L107.297 662.637H102.333V677.583H97.3686V640.217H112.315C116.425 640.217 119.788 643.526 119.788 647.69ZM102.333 645.181V657.672H111.087C113.116 657.672 114.824 655.964 114.824 653.936V648.918C114.824 646.836 113.116 645.181 111.087 645.181H102.333ZM125.101 640.217H147.521V645.181H130.066V655.911H145.012V660.875H130.066V672.619H147.521V677.583H125.101V640.217ZM147.521 645.235H130.119V655.911H145.012V660.875H130.119V672.565H147.521V677.53H125.155V640.27H147.521V645.235ZM174.518 651.106V651.32H169.713V651.106C169.713 647.583 166.938 644.754 163.468 644.754C159.998 644.754 157.169 647.583 157.169 651.106V666.693C157.169 670.217 159.998 673.046 163.468 673.046C166.938 673.046 169.713 670.217 169.713 666.693V666.48H174.518V666.693C174.518 672.886 169.713 678.117 163.468 678.117C157.169 678.117 152.365 672.939 152.365 666.693V651.106C152.365 644.861 157.169 639.683 163.468 639.683C169.713 639.683 174.518 644.914 174.518 651.106ZM185.175 640.217V677.583H179.837V640.217H185.175ZM201.947 678.117C195.915 678.117 191.004 674.113 190.523 667.548H195.541V667.975C195.541 671.124 198.531 673.259 201.84 673.259C205.256 673.259 207.659 671.124 207.659 667.921C207.659 659.647 190.63 661.355 190.63 650.733C190.63 643.687 194.794 639.79 201.733 639.736C207.872 639.683 211.929 644.274 212.249 650.359H207.338C207.232 646.889 204.723 644.701 201.413 644.701C197.943 644.701 195.488 646.409 195.488 649.772C195.488 658.953 212.676 654.95 212.676 667.548C212.676 673.633 207.765 678.117 201.947 678.117ZM217.996 640.217H240.415V645.181H222.96V655.911H237.906V660.875H222.96V672.619H240.415V677.583H217.996V640.217ZM240.415 645.235H223.013V655.911H237.906V660.875H223.013V672.565H240.415V677.53H218.049V640.27H240.415V645.235ZM281.226 651.32H276.422V651.053C276.422 647.583 273.593 644.754 270.176 644.754C266.76 644.754 263.931 647.583 263.931 651.053V666.747C263.931 670.217 266.76 673.046 270.176 673.046C273.593 673.046 276.422 670.217 276.422 666.747V663.971H270.176V658.9H281.226V666.747C281.226 672.886 276.369 678.117 270.176 678.117C263.984 678.117 259.073 672.939 259.073 666.747V651.053C259.073 644.861 263.984 639.683 270.176 639.683C276.369 639.683 281.226 644.914 281.226 651.053V651.32ZM308.965 647.69V655.163C308.965 659.274 306.243 662.637 302.133 662.637L308.965 677.583H303.36L296.474 662.637H291.51V677.583H286.545V640.217H301.492C305.602 640.217 308.965 643.526 308.965 647.69ZM291.51 645.181V657.672H300.264C302.293 657.672 304.001 655.964 304.001 653.936V648.918C304.001 646.836 302.293 645.181 300.264 645.181H291.51ZM319.616 640.217V677.583H314.278V640.217H319.616ZM324.965 640.217H339.911C344.021 640.217 347.384 643.526 347.384 647.69V670.11C347.384 674.273 344.021 677.583 339.911 677.583H324.965V640.217ZM342.42 668.882V648.918C342.42 646.836 340.712 645.181 338.683 645.181H329.929V672.619H338.683C340.712 672.619 342.42 670.964 342.42 668.882ZM377.466 678.117C371.434 678.117 366.523 674.113 366.043 667.548H371.06V667.975C371.06 671.124 374.05 673.259 377.359 673.259C380.775 673.259 383.178 671.124 383.178 667.921C383.178 659.647 366.149 661.355 366.149 650.733C366.149 643.687 370.313 639.79 377.252 639.736C383.391 639.683 387.448 644.274 387.768 650.359H382.857C382.751 646.889 380.242 644.701 376.932 644.701C373.462 644.701 371.007 646.409 371.007 649.772C371.007 658.953 388.195 654.95 388.195 667.548C388.195 673.633 383.284 678.117 377.466 678.117ZM409.823 640.217H414.788L406.087 658.9V677.583H401.069V658.9L392.368 640.217H397.332L403.631 653.562L409.823 640.217ZM430.638 678.117C424.606 678.117 419.695 674.113 419.214 667.548H424.232V667.975C424.232 671.124 427.221 673.259 430.531 673.259C433.947 673.259 436.349 671.124 436.349 667.921C436.349 659.647 419.321 661.355 419.321 650.733C419.321 643.687 423.485 639.79 430.424 639.736C436.563 639.683 440.62 644.274 440.94 650.359H436.029C435.922 646.889 433.413 644.701 430.104 644.701C426.634 644.701 424.179 646.409 424.179 649.772C424.179 658.953 441.367 654.95 441.367 667.548C441.367 673.633 436.456 678.117 430.638 678.117ZM446.061 640.217H468.481V645.181H459.78V677.583H454.762V645.181H446.061V640.217ZM473.794 640.217H496.213V645.181H478.758V655.911H493.704V660.875H478.758V672.619H496.213V677.583H473.794V640.217ZM496.213 645.235H478.811V655.911H493.704V660.875H478.811V672.565H496.213V677.53H473.847V640.27H496.213V645.235ZM523.999 640.217H529.017V677.583H523.999V653.295L517.754 669.576H512.736L506.544 653.295V677.583H501.526V640.217H506.544L515.299 663.01L523.999 640.217ZM523.946 640.27H528.91V677.53H523.946V653.295L517.701 669.523H512.736L506.544 653.295V677.53H501.58V640.27H506.544L515.245 663.01L523.946 640.27ZM532.766 683.188V671.978H538.371V677.583L532.766 683.188ZM555.428 640.217H570.374C574.485 640.217 577.848 643.526 577.848 647.69V670.11C577.848 674.273 574.485 677.583 570.374 677.583H555.428V640.217ZM572.883 668.882V648.918C572.883 646.836 571.175 645.181 569.147 645.181H560.392V672.619H569.147C571.175 672.619 572.883 670.964 572.883 668.882ZM605.58 647.69V655.163C605.58 659.274 602.858 662.637 598.748 662.637L605.58 677.583H599.976L593.089 662.637H588.125V677.583H583.161V640.217H598.107C602.217 640.217 605.58 643.526 605.58 647.69ZM588.125 645.181V657.672H596.879C598.908 657.672 600.616 655.964 600.616 653.936V648.918C600.616 646.836 598.908 645.181 596.879 645.181H588.125ZM624.559 640.217L633.313 677.583H628.349L626.48 669.576H617.78L615.858 677.583H610.893L619.594 640.217H624.559ZM618.9 664.612H625.306L622.157 651L618.9 664.612ZM659.379 640.217H664.397L660.66 677.583H655.642L650.678 654.309L645.66 677.583H640.643L636.906 640.217H641.924L644.059 661.729L648.116 642.672H653.134L657.244 661.622L659.379 640.217ZM659.326 640.27H664.29L660.553 677.53H655.589L650.625 654.309L645.66 677.53H640.696L636.959 640.27H641.924L644.059 661.729L648.116 642.726H653.08L657.19 661.622L659.326 640.27ZM680.754 678.117C674.722 678.117 669.811 674.113 669.33 667.548H674.348V667.975C674.348 671.124 677.337 673.259 680.647 673.259C684.063 673.259 686.465 671.124 686.465 667.921C686.465 659.647 669.437 661.355 669.437 650.733C669.437 643.687 673.601 639.79 680.54 639.736C686.679 639.683 690.736 644.274 691.056 650.359H686.145C686.038 646.889 683.529 644.701 680.22 644.701C676.75 644.701 674.295 646.409 674.295 649.772C674.295 658.953 691.483 654.95 691.483 667.548C691.483 673.633 686.572 678.117 680.754 678.117ZM74.9738 696.217V733.583H69.6358V696.217H74.9738ZM97.7777 696.217H102.742V733.583H97.1371L85.2867 707.373V733.583H80.3223V696.217H85.8739L97.7777 722.533V696.217ZM119.478 734.117C113.446 734.117 108.535 730.113 108.055 723.548H113.073V723.975C113.073 727.124 116.062 729.259 119.372 729.259C122.788 729.259 125.19 727.124 125.19 723.921C125.19 715.647 108.162 717.355 108.162 706.733C108.162 699.687 112.325 695.79 119.265 695.736C125.404 695.683 129.461 700.274 129.781 706.359H124.87C124.763 702.889 122.254 700.701 118.945 700.701C115.475 700.701 113.019 702.409 113.019 705.772C113.019 714.953 130.208 710.95 130.208 723.548C130.208 729.633 125.297 734.117 119.478 734.117ZM135.527 696.217H150.474C154.584 696.217 157.947 699.526 157.947 703.69V711.163C157.947 715.274 154.584 718.637 150.474 718.637H140.492V733.583H135.527V696.217ZM152.983 709.936V704.918C152.983 702.836 151.274 701.181 149.246 701.181H140.492V713.672H149.246C151.274 713.672 152.983 711.964 152.983 709.936ZM168.598 696.217V733.583H163.26V696.217H168.598ZM196.366 703.69V711.163C196.366 715.274 193.644 718.637 189.533 718.637L196.366 733.583H190.761L183.875 718.637H178.911V733.583H173.946V696.217H188.893C193.003 696.217 196.366 699.526 196.366 703.69ZM178.911 701.181V713.672H187.665C189.694 713.672 191.402 711.964 191.402 709.936V704.918C191.402 702.836 189.694 701.181 187.665 701.181H178.911ZM215.344 696.217L224.099 733.583H219.134L217.266 725.576H208.565L206.643 733.583H201.679L210.38 696.217H215.344ZM209.686 720.612H216.092L212.942 707L209.686 720.612ZM227.118 696.217H249.538V701.181H240.837V733.583H235.819V701.181H227.118V696.217ZM260.189 696.217V733.583H254.851V696.217H260.189ZM276.641 695.683C282.886 695.683 287.69 700.968 287.69 707.106V722.693C287.69 728.832 282.886 734.117 276.641 734.117C270.342 734.117 265.537 728.939 265.537 722.693V707.106C265.537 700.861 270.342 695.683 276.641 695.683ZM282.886 722.693V707.106C282.886 703.583 280.164 700.754 276.641 700.754C273.117 700.754 270.342 703.53 270.342 707.106V722.693C270.342 726.27 273.117 729.046 276.641 729.046C280.164 729.046 282.886 726.217 282.886 722.693ZM310.465 696.217H315.429V733.583H309.824L297.974 707.373V733.583H293.01V696.217H298.561L310.465 722.533V696.217ZM334.087 696.217H356.507V701.181H339.052V711.857H351.543V716.822H339.052V733.583H334.087V696.217ZM356.507 701.181H339.052V711.857H351.543V716.822H339.052V733.583H334.087V696.217H356.507V701.181ZM384.24 703.69V711.163C384.24 715.274 381.517 718.637 377.407 718.637L384.24 733.583H378.635L371.749 718.637H366.784V733.583H361.82V696.217H376.767C380.877 696.217 384.24 699.526 384.24 703.69ZM366.784 701.181V713.672H375.539C377.567 713.672 379.275 711.964 379.275 709.936V704.918C379.275 702.836 377.567 701.181 375.539 701.181H366.784ZM400.656 695.683C406.901 695.683 411.706 700.968 411.706 707.106V722.693C411.706 728.832 406.901 734.117 400.656 734.117C394.357 734.117 389.553 728.939 389.553 722.693V707.106C389.553 700.861 394.357 695.683 400.656 695.683ZM406.901 722.693V707.106C406.901 703.583 404.179 700.754 400.656 700.754C397.133 700.754 394.357 703.53 394.357 707.106V722.693C394.357 726.27 397.133 729.046 400.656 729.046C404.179 729.046 406.901 726.217 406.901 722.693ZM439.498 696.217H444.516V733.583H439.498V709.295L433.253 725.576H428.235L422.043 709.295V733.583H417.025V696.217H422.043L430.797 719.01L439.498 696.217ZM439.445 696.27H444.409V733.53H439.445V709.295L433.199 725.523H428.235L422.043 709.295V733.53H417.078V696.27H422.043L430.744 719.01L439.445 696.27ZM463.211 696.217H485.631V701.181H476.93V733.583H471.912V701.181H463.211V696.217ZM508.399 696.217H513.364V733.583H508.399V716.822H495.909V733.583H490.944V696.217H495.909V711.857H508.399V696.217ZM518.677 696.217H541.097V701.181H523.641V711.911H538.588V716.875H523.641V728.619H541.097V733.583H518.677V696.217ZM541.097 701.235H523.695V711.911H538.588V716.875H523.695V728.565H541.097V733.53H518.73V696.27H541.097V701.235ZM557.833 734.117C551.801 734.117 546.89 730.113 546.41 723.548H551.427V723.975C551.427 727.124 554.417 729.259 557.726 729.259C561.143 729.259 563.545 727.124 563.545 723.921C563.545 715.647 546.516 717.355 546.516 706.733C546.516 699.687 550.68 695.79 557.619 695.736C563.758 695.683 567.815 700.274 568.135 706.359H563.224C563.118 702.889 560.609 700.701 557.299 700.701C553.829 700.701 551.374 702.409 551.374 705.772C551.374 714.953 568.562 710.95 568.562 723.548C568.562 729.633 563.651 734.117 557.833 734.117ZM573.882 696.217H596.301V701.181H578.846V711.911H593.793V716.875H578.846V728.619H596.301V733.583H573.882V696.217ZM596.301 701.235H578.899V711.911H593.793V716.875H578.899V728.565H596.301V733.53H573.935V696.27H596.301V701.235ZM614.96 696.217H637.379V701.181H628.678V733.583H623.661V701.181H614.96V696.217ZM665.165 696.217H670.183L666.447 733.583H661.429L656.464 710.309L651.447 733.583H646.429L642.692 696.217H647.71L649.845 717.729L653.902 698.672H658.92L663.03 717.622L665.165 696.217ZM665.112 696.27H670.076L666.34 733.53H661.375L656.411 710.309L651.447 733.53H646.482L642.746 696.27H647.71L649.845 717.729L653.902 698.726H658.867L662.977 717.622L665.112 696.27ZM686.22 695.683C692.465 695.683 697.269 700.968 697.269 707.106V722.693C697.269 728.832 692.465 734.117 686.22 734.117C679.921 734.117 675.117 728.939 675.117 722.693V707.106C675.117 700.861 679.921 695.683 686.22 695.683ZM692.465 722.693V707.106C692.465 703.583 689.743 700.754 686.22 700.754C682.697 700.754 679.921 703.53 679.921 707.106V722.693C679.921 726.27 682.697 729.046 686.22 729.046C689.743 729.046 692.465 726.217 692.465 722.693ZM92.0555 759.69V767.163C92.0555 771.274 89.3332 774.637 85.2229 774.637L92.0555 789.583H86.4506L79.5646 774.637H74.6002V789.583H69.6358V752.217H84.5823C88.6926 752.217 92.0555 755.526 92.0555 759.69ZM74.6002 757.181V769.672H83.3546C85.383 769.672 87.0912 767.964 87.0912 765.936V760.918C87.0912 758.836 85.383 757.181 83.3546 757.181H74.6002ZM97.3686 752.217H119.788V757.181H102.333V767.911H117.279V772.875H102.333V784.619H119.788V789.583H97.3686V752.217ZM119.788 757.235H102.386V767.911H117.279V772.875H102.386V784.565H119.788V789.53H97.4219V752.27H119.788V757.235ZM142.557 752.217H147.521V789.583H141.916L130.066 763.373V789.583H125.101V752.217H130.653L142.557 778.533V752.217ZM163.937 751.683C170.183 751.683 174.987 756.968 174.987 763.106V778.693C174.987 784.832 170.183 790.117 163.937 790.117C157.638 790.117 152.834 784.939 152.834 778.693V763.106C152.834 756.861 157.638 751.683 163.937 751.683ZM170.183 778.693V763.106C170.183 759.583 167.46 756.754 163.937 756.754C160.414 756.754 157.638 759.53 157.638 763.106V778.693C157.638 782.27 160.414 785.046 163.937 785.046C167.46 785.046 170.183 782.217 170.183 778.693ZM202.31 752.217H207.328L203.591 789.583H198.573L193.609 766.309L188.591 789.583H183.574L179.837 752.217H184.855L186.99 773.729L191.047 754.672H196.065L200.175 773.622L202.31 752.217ZM202.257 752.27H207.221L203.484 789.53H198.52L193.556 766.309L188.591 789.53H183.627L179.89 752.27H184.855L186.99 773.729L191.047 754.726H196.011L200.121 773.622L202.257 752.27ZM230.134 752.217H235.098V789.583H229.493L217.643 763.373V789.583H212.678V752.217H218.23L230.134 778.533V752.217ZM240.411 752.217H262.831V757.181H245.375V767.911H260.322V772.875H245.375V784.619H262.831V789.583H240.411V752.217ZM262.831 757.235H245.429V767.911H260.322V772.875H245.429V784.565H262.831V789.53H240.465V752.27H262.831V757.235ZM268.144 752.217H283.09C287.201 752.217 290.564 755.526 290.564 759.69V782.11C290.564 786.273 287.201 789.583 283.09 789.583H268.144V752.217ZM285.599 780.882V760.918C285.599 758.836 283.891 757.181 281.863 757.181H273.108V784.619H281.863C283.891 784.619 285.599 782.964 285.599 780.882ZM320.645 790.117C314.613 790.117 309.702 786.113 309.222 779.548H314.239V779.975C314.239 783.124 317.229 785.259 320.538 785.259C323.955 785.259 326.357 783.124 326.357 779.921C326.357 771.647 309.328 773.355 309.328 762.733C309.328 755.687 313.492 751.79 320.432 751.736C326.57 751.683 330.627 756.274 330.947 762.359H326.036C325.93 758.889 323.421 756.701 320.111 756.701C316.642 756.701 314.186 758.409 314.186 761.772C314.186 770.953 331.375 766.95 331.375 779.548C331.375 785.633 326.464 790.117 320.645 790.117ZM358.847 763.106V763.32H354.042V763.106C354.042 759.583 351.267 756.754 347.797 756.754C344.327 756.754 341.498 759.583 341.498 763.106V778.693C341.498 782.217 344.327 785.046 347.797 785.046C351.267 785.046 354.042 782.217 354.042 778.693V778.48H358.847V778.693C358.847 784.886 354.042 790.117 347.797 790.117C341.498 790.117 336.694 784.939 336.694 778.693V763.106C336.694 756.861 341.498 751.683 347.797 751.683C354.042 751.683 358.847 756.914 358.847 763.106ZM381.621 752.217H386.586V789.583H381.621V772.822H369.13V789.583H364.166V752.217H369.13V767.857H381.621V752.217ZM403.002 751.683C409.247 751.683 414.051 756.968 414.051 763.106V778.693C414.051 784.832 409.247 790.117 403.002 790.117C396.703 790.117 391.899 784.939 391.899 778.693V763.106C391.899 756.861 396.703 751.683 403.002 751.683ZM409.247 778.693V763.106C409.247 759.583 406.525 756.754 403.002 756.754C399.479 756.754 396.703 759.53 396.703 763.106V778.693C396.703 782.27 399.479 785.046 403.002 785.046C406.525 785.046 409.247 782.217 409.247 778.693ZM430.474 751.683C436.719 751.683 441.524 756.968 441.524 763.106V778.693C441.524 784.832 436.719 790.117 430.474 790.117C424.175 790.117 419.371 784.939 419.371 778.693V763.106C419.371 756.861 424.175 751.683 430.474 751.683ZM436.719 778.693V763.106C436.719 759.583 433.997 756.754 430.474 756.754C426.951 756.754 424.175 759.53 424.175 763.106V778.693C424.175 782.27 426.951 785.046 430.474 785.046C433.997 785.046 436.719 782.217 436.719 778.693ZM446.843 752.217H451.807V752.27H451.861V784.565H469.263V789.583H446.843V752.217ZM484.956 790.117C478.924 790.117 474.013 786.113 473.533 779.548H478.551V779.975C478.551 783.124 481.54 785.259 484.85 785.259C488.266 785.259 490.668 783.124 490.668 779.921C490.668 771.647 473.64 773.355 473.64 762.733C473.64 755.687 477.803 751.79 484.743 751.736C490.882 751.683 494.938 756.274 495.259 762.359H490.348C490.241 758.889 487.732 756.701 484.423 756.701C480.953 756.701 478.497 758.409 478.497 761.772C478.497 770.953 495.686 766.95 495.686 779.548C495.686 785.633 490.775 790.117 484.956 790.117ZM525.453 751.683C531.699 751.683 536.503 756.968 536.503 763.106V778.693C536.503 784.832 531.699 790.117 525.453 790.117C519.154 790.117 514.35 784.939 514.35 778.693V763.106C514.35 756.861 519.154 751.683 525.453 751.683ZM531.699 778.693V763.106C531.699 759.583 528.976 756.754 525.453 756.754C521.93 756.754 519.154 759.53 519.154 763.106V778.693C519.154 782.27 521.93 785.046 525.453 785.046C528.976 785.046 531.699 782.217 531.699 778.693ZM541.822 752.217H564.242V757.181H546.787V767.857H559.278V772.822H546.787V789.583H541.822V752.217ZM564.242 757.181H546.787V767.857H559.278V772.822H546.787V789.583H541.822V752.217H564.242V757.181ZM582.9 752.217H597.847C601.957 752.217 605.32 755.526 605.32 759.69V782.11C605.32 786.273 601.957 789.583 597.847 789.583H582.9V752.217ZM600.355 780.882V760.918C600.355 758.836 598.647 757.181 596.619 757.181H587.864V784.619H596.619C598.647 784.619 600.355 782.964 600.355 780.882ZM610.633 752.217H633.053V757.181H615.597V767.911H630.544V772.875H615.597V784.619H633.053V789.583H610.633V752.217ZM633.053 757.235H615.651V767.911H630.544V772.875H615.651V784.565H633.053V789.53H610.686V752.27H633.053V757.235ZM649.789 790.117C643.757 790.117 638.846 786.113 638.366 779.548H643.383V779.975C643.383 783.124 646.373 785.259 649.682 785.259C653.099 785.259 655.501 783.124 655.501 779.921C655.501 771.647 638.472 773.355 638.472 762.733C638.472 755.687 642.636 751.79 649.575 751.736C655.714 751.683 659.771 756.274 660.091 762.359H655.18C655.074 758.889 652.565 756.701 649.255 756.701C645.785 756.701 643.33 758.409 643.33 761.772C643.33 770.953 660.518 766.95 660.518 779.548C660.518 785.633 655.607 790.117 649.789 790.117ZM671.176 752.217V789.583H665.838V752.217H671.176ZM698.677 763.32H693.873V763.053C693.873 759.583 691.044 756.754 687.627 756.754C684.211 756.754 681.382 759.583 681.382 763.053V778.747C681.382 782.217 684.211 785.046 687.627 785.046C691.044 785.046 693.873 782.217 693.873 778.747V775.971H687.627V770.9H698.677V778.747C698.677 784.886 693.819 790.117 687.627 790.117C681.435 790.117 676.524 784.939 676.524 778.747V763.053C676.524 756.861 681.435 751.683 687.627 751.683C693.819 751.683 698.677 756.914 698.677 763.053V763.32ZM721.452 752.217H726.416V789.583H720.811L708.961 763.373V789.583H703.996V752.217H709.548L721.452 778.533V752.217ZM758.739 752.217L767.494 789.583H762.529L760.661 781.576H751.96L750.038 789.583H745.074L753.775 752.217H758.739ZM753.081 776.612H759.487L756.337 763L753.081 776.612ZM790.262 752.217H795.227V789.583H789.622L777.771 763.373V789.583H772.807V752.217H778.358L790.262 778.533V752.217ZM800.54 752.217H815.486C819.596 752.217 822.959 755.526 822.959 759.69V782.11C822.959 786.273 819.596 789.583 815.486 789.583H800.54V752.217ZM817.995 780.882V760.918C817.995 758.836 816.287 757.181 814.258 757.181H805.504V784.619H814.258C816.287 784.619 817.995 782.964 817.995 780.882ZM92.0555 815.69V823.163C92.0555 827.274 89.3332 830.637 85.2229 830.637L92.0555 845.583H86.4506L79.5646 830.637H74.6002V845.583H69.6358V808.217H84.5823C88.6926 808.217 92.0555 811.526 92.0555 815.69ZM74.6002 813.181V825.672H83.3546C85.383 825.672 87.0912 823.964 87.0912 821.936V816.918C87.0912 814.836 85.383 813.181 83.3546 813.181H74.6002ZM97.3686 808.217H119.788V813.181H102.333V823.911H117.279V828.875H102.333V840.619H119.788V845.583H97.3686V808.217ZM119.788 813.235H102.386V823.911H117.279V828.875H102.386V840.565H119.788V845.53H97.4219V808.27H119.788V813.235ZM125.101 808.217H147.521V813.181H130.066V823.857H142.557V828.822H130.066V845.583H125.101V808.217ZM147.521 813.181H130.066V823.857H142.557V828.822H130.066V845.583H125.101V808.217H147.521V813.181ZM152.834 808.217H157.798V808.27H157.852V840.565H175.254V845.583H152.834V808.217ZM179.524 808.217H201.944V813.181H184.489V823.911H199.435V828.875H184.489V840.619H201.944V845.583H179.524V808.217ZM201.944 813.235H184.542V823.911H199.435V828.875H184.542V840.565H201.944V845.53H179.578V808.27H201.944V813.235ZM228.941 819.106V819.32H224.136V819.106C224.136 815.583 221.361 812.754 217.891 812.754C214.421 812.754 211.592 815.583 211.592 819.106V834.693C211.592 838.217 214.421 841.046 217.891 841.046C221.361 841.046 224.136 838.217 224.136 834.693V834.48H228.941V834.693C228.941 840.886 224.136 846.117 217.891 846.117C211.592 846.117 206.788 840.939 206.788 834.693V819.106C206.788 812.861 211.592 807.683 217.891 807.683C224.136 807.683 228.941 812.914 228.941 819.106ZM234.26 808.217H256.68V813.181H247.979V845.583H242.961V813.181H234.26V808.217ZM272.999 846.117C266.967 846.117 262.056 842.113 261.576 835.548H266.593V835.975C266.593 839.124 269.583 841.259 272.892 841.259C276.309 841.259 278.711 839.124 278.711 835.921C278.711 827.647 261.682 829.355 261.682 818.733C261.682 811.687 265.846 807.79 272.785 807.736C278.924 807.683 282.981 812.274 283.301 818.359H278.39C278.284 814.889 275.775 812.701 272.465 812.701C268.995 812.701 266.54 814.409 266.54 817.772C266.54 826.953 283.728 822.95 283.728 835.548C283.728 841.633 278.817 846.117 272.999 846.117ZM302.393 808.217H324.813V813.181H316.112V845.583H311.094V813.181H302.393V808.217ZM347.581 808.217H352.545V845.583H347.581V828.822H335.09V845.583H330.125V808.217H335.09V823.857H347.581V808.217ZM357.858 808.217H380.278V813.181H362.823V823.911H377.769V828.875H362.823V840.619H380.278V845.583H357.858V808.217ZM380.278 813.235H362.876V823.911H377.769V828.875H362.876V840.565H380.278V845.53H357.912V808.27H380.278V813.235ZM421.089 819.106V819.32H416.285V819.106C416.285 815.583 413.509 812.754 410.039 812.754C406.569 812.754 403.74 815.583 403.74 819.106V834.693C403.74 838.217 406.569 841.046 410.039 841.046C413.509 841.046 416.285 838.217 416.285 834.693V834.48H421.089V834.693C421.089 840.886 416.285 846.117 410.039 846.117C403.74 846.117 398.936 840.939 398.936 834.693V819.106C398.936 812.861 403.74 807.683 410.039 807.683C416.285 807.683 421.089 812.914 421.089 819.106ZM448.828 815.69V823.163C448.828 827.274 446.105 830.637 441.995 830.637L448.828 845.583H443.223L436.337 830.637H431.373V845.583H426.408V808.217H441.355C445.465 808.217 448.828 811.526 448.828 815.69ZM431.373 813.181V825.672H440.127C442.155 825.672 443.864 823.964 443.864 821.936V816.918C443.864 814.836 442.155 813.181 440.127 813.181H431.373ZM454.141 808.217H476.561V813.181H459.105V823.911H474.052V828.875H459.105V840.619H476.561V845.583H454.141V808.217ZM476.561 813.235H459.159V823.911H474.052V828.875H459.159V840.565H476.561V845.53H454.194V808.27H476.561V813.235ZM495.539 808.217L504.293 845.583H499.329L497.461 837.576H488.76L486.838 845.583H481.874L490.575 808.217H495.539ZM489.881 832.612H496.286L493.137 819L489.881 832.612ZM507.313 808.217H529.732V813.181H521.031V845.583H516.014V813.181H507.313V808.217ZM540.383 808.217V845.583H535.045V808.217H540.383ZM545.732 808.217H550.696L556.888 834.907L563.187 808.217H568.152L559.451 845.583H554.433L545.732 808.217ZM563.187 808.27H568.152L559.451 845.53H554.486L545.785 808.27H550.75L556.942 834.907L563.187 808.27ZM573.569 808.217H595.989V813.181H578.533V823.911H593.48V828.875H578.533V840.619H595.989V845.583H573.569V808.217ZM595.989 813.235H578.587V823.911H593.48V828.875H578.587V840.565H595.989V845.53H573.622V808.27H595.989V813.235ZM614.647 808.217H619.611L625.803 834.907L632.102 808.217H637.066L628.365 845.583H623.348L614.647 808.217ZM632.102 808.27H637.066L628.365 845.53H623.401L614.7 808.27H619.664L625.857 834.907L632.102 808.27ZM647.822 808.217V845.583H642.484V808.217H647.822ZM664.594 846.117C658.562 846.117 653.651 842.113 653.17 835.548H658.188V835.975C658.188 839.124 661.177 841.259 664.487 841.259C667.903 841.259 670.305 839.124 670.305 835.921C670.305 827.647 653.277 829.355 653.277 818.733C653.277 811.687 657.441 807.79 664.38 807.736C670.519 807.683 674.576 812.274 674.896 818.359H669.985C669.878 814.889 667.369 812.701 664.06 812.701C660.59 812.701 658.135 814.409 658.135 817.772C658.135 826.953 675.323 822.95 675.323 835.548C675.323 841.633 670.412 846.117 664.594 846.117ZM685.98 808.217V845.583H680.642V808.217H685.98ZM702.432 807.683C708.677 807.683 713.482 812.968 713.482 819.106V834.693C713.482 840.832 708.677 846.117 702.432 846.117C696.133 846.117 691.329 840.939 691.329 834.693V819.106C691.329 812.861 696.133 807.683 702.432 807.683ZM708.677 834.693V819.106C708.677 815.583 705.955 812.754 702.432 812.754C698.909 812.754 696.133 815.53 696.133 819.106V834.693C696.133 838.27 698.909 841.046 702.432 841.046C705.955 841.046 708.677 838.217 708.677 834.693ZM736.256 808.217H741.221V845.583H735.616L723.765 819.373V845.583H718.801V808.217H724.352L736.256 834.533V808.217ZM770.982 807.683C777.227 807.683 782.032 812.968 782.032 819.106V834.693C782.032 840.832 777.227 846.117 770.982 846.117C764.683 846.117 759.879 840.939 759.879 834.693V819.106C759.879 812.861 764.683 807.683 770.982 807.683ZM777.227 834.693V819.106C777.227 815.583 774.505 812.754 770.982 812.754C767.459 812.754 764.683 815.53 764.683 819.106V834.693C764.683 838.27 767.459 841.046 770.982 841.046C774.505 841.046 777.227 838.217 777.227 834.693ZM787.351 808.217H809.771V813.181H792.315V823.857H804.806V828.822H792.315V845.583H787.351V808.217ZM809.771 813.181H792.315V823.857H804.806V828.822H792.315V845.583H787.351V808.217H809.771V813.181ZM842.094 808.217L850.848 845.583H845.884L844.016 837.576H835.315L833.393 845.583H828.429L837.13 808.217H842.094ZM836.436 832.612H842.841L839.692 819L836.436 832.612ZM69.6358 864.217H92.0555V869.181H74.6002V879.857H87.0912V884.822H74.6002V901.583H69.6358V864.217ZM92.0555 869.181H74.6002V879.857H87.0912V884.822H74.6002V901.583H69.6358V864.217H92.0555V869.181ZM119.788 871.69V879.163C119.788 883.274 117.066 886.637 112.956 886.637L119.788 901.583H114.183L107.297 886.637H102.333V901.583H97.3686V864.217H112.315C116.425 864.217 119.788 867.526 119.788 871.69ZM102.333 869.181V881.672H111.087C113.116 881.672 114.824 879.964 114.824 877.936V872.918C114.824 870.836 113.116 869.181 111.087 869.181H102.333ZM125.101 864.217H147.521V869.181H130.066V879.911H145.012V884.875H130.066V896.619H147.521V901.583H125.101V864.217ZM147.521 869.235H130.119V879.911H145.012V884.875H130.119V896.565H147.521V901.53H125.155V864.27H147.521V869.235ZM170.289 864.217H175.254V901.583H169.649L157.798 875.373V901.583H152.834V864.217H158.386L170.289 890.533V864.217ZM202.72 875.106V875.32H197.915V875.106C197.915 871.583 195.14 868.754 191.67 868.754C188.2 868.754 185.371 871.583 185.371 875.106V890.693C185.371 894.217 188.2 897.046 191.67 897.046C195.14 897.046 197.915 894.217 197.915 890.693V890.48H202.72V890.693C202.72 896.886 197.915 902.117 191.67 902.117C185.371 902.117 180.567 896.939 180.567 890.693V875.106C180.567 868.861 185.371 863.683 191.67 863.683C197.915 863.683 202.72 868.914 202.72 875.106ZM225.494 864.217H230.459V901.583H225.494V884.822H213.003V901.583H208.039V864.217H213.003V879.857H225.494V864.217ZM249.117 864.217H264.063C268.173 864.217 271.536 867.526 271.536 871.69V894.11C271.536 898.273 268.173 901.583 264.063 901.583H249.117V864.217ZM266.572 892.882V872.918C266.572 870.836 264.864 869.181 262.835 869.181H254.081V896.619H262.835C264.864 896.619 266.572 894.964 266.572 892.882ZM276.849 864.217H299.269V869.181H281.814V879.911H296.76V884.875H281.814V896.619H299.269V901.583H276.849V864.217ZM299.269 869.235H281.867V879.911H296.76V884.875H281.867V896.565H299.269V901.53H276.903V864.27H299.269V869.235ZM316.006 902.117C309.974 902.117 305.063 898.113 304.582 891.548H309.6V891.975C309.6 895.124 312.589 897.259 315.899 897.259C319.315 897.259 321.717 895.124 321.717 891.921C321.717 883.647 304.689 885.355 304.689 874.733C304.689 867.687 308.853 863.79 315.792 863.736C321.931 863.683 325.988 868.274 326.308 874.359H321.397C321.29 870.889 318.781 868.701 315.472 868.701C312.002 868.701 309.547 870.409 309.547 873.772C309.547 882.953 326.735 878.95 326.735 891.548C326.735 897.633 321.824 902.117 316.006 902.117ZM337.392 864.217V901.583H332.054V864.217H337.392ZM364.894 875.32H360.089V875.053C360.089 871.583 357.26 868.754 353.844 868.754C350.428 868.754 347.598 871.583 347.598 875.053V890.747C347.598 894.217 350.428 897.046 353.844 897.046C357.26 897.046 360.089 894.217 360.089 890.747V887.971H353.844V882.9H364.894V890.747C364.894 896.886 360.036 902.117 353.844 902.117C347.652 902.117 342.741 896.939 342.741 890.747V875.053C342.741 868.861 347.652 863.683 353.844 863.683C360.036 863.683 364.894 868.914 364.894 875.053V875.32ZM387.668 864.217H392.633V901.583H387.028L375.177 875.373V901.583H370.213V864.217H375.764L387.668 890.533V864.217ZM397.946 864.217H420.365V869.181H402.91V879.911H417.856V884.875H402.91V896.619H420.365V901.583H397.946V864.217ZM420.365 869.235H402.963V879.911H417.856V884.875H402.963V896.565H420.365V901.53H397.999V864.27H420.365V869.235ZM448.098 871.69V879.163C448.098 883.274 445.376 886.637 441.265 886.637L448.098 901.583H442.493L435.607 886.637H430.643V901.583H425.678V864.217H440.625C444.735 864.217 448.098 867.526 448.098 871.69ZM430.643 869.181V881.672H439.397C441.426 881.672 443.134 879.964 443.134 877.936V872.918C443.134 870.836 441.426 869.181 439.397 869.181H430.643ZM451.81 901.583V895.978H457.415V901.583H451.81Z" fill="black"/>
<path d="M451.898 1003.21H470.166C475.19 1003.21 479.3 1007.25 479.3 1012.34V1021.48C479.3 1026.5 475.19 1030.61 470.166 1030.61H457.966V1048.88H451.898V1003.21ZM473.233 1019.97V1013.84C473.233 1011.3 471.145 1009.27 468.666 1009.27H457.966V1024.54H468.666C471.145 1024.54 473.233 1022.45 473.233 1019.97ZM496.634 1003.21L507.334 1048.88H501.266L498.983 1039.09H488.348L486 1048.88H479.932L490.567 1003.21H496.634ZM489.719 1033.02H497.548L493.698 1016.39L489.719 1033.02ZM531.59 1003.21H537.527V1035.7C537.527 1043.2 531.524 1049.53 524.021 1049.53C516.518 1049.53 510.451 1043.2 510.451 1035.7V1003.21H516.388V1035.7C516.388 1039.87 519.846 1043.4 524.021 1043.4C528.132 1043.4 531.59 1039.81 531.59 1035.7V1003.21ZM544.028 1003.21H550.096V1003.27H550.161V1042.74H571.43V1048.88H544.028V1003.21ZM620.427 1003.21H626.56V1048.88H620.427V1019.19L612.794 1039.09H606.661L599.093 1019.19V1048.88H592.96V1003.21H599.093L609.792 1031.07L620.427 1003.21ZM620.362 1003.27H626.429V1048.81H620.362V1019.19L612.728 1039.03H606.661L599.093 1019.19V1048.81H593.025V1003.27H599.093L609.727 1031.07L620.362 1003.27ZM649.802 1003.21L660.501 1048.88H654.434L652.15 1039.09H641.516L639.167 1048.88H633.099L643.734 1003.21H649.802ZM642.886 1033.02H650.715L646.866 1016.39L642.886 1033.02ZM694.397 1012.34V1021.48C694.397 1026.5 691.07 1030.61 686.046 1030.61L694.397 1048.88H687.546L679.13 1030.61H673.063V1048.88H666.995V1003.21H685.263C690.287 1003.21 694.397 1007.25 694.397 1012.34ZM673.063 1009.27V1024.54H683.762C686.242 1024.54 688.329 1022.45 688.329 1019.97V1013.84C688.329 1011.3 686.242 1009.27 683.762 1009.27H673.063ZM727.966 1016.52V1016.78H722.094V1016.52C722.094 1012.21 718.702 1008.75 714.461 1008.75C710.22 1008.75 706.762 1012.21 706.762 1016.52V1035.57C706.762 1039.87 710.22 1043.33 714.461 1043.33C718.702 1043.33 722.094 1039.87 722.094 1035.57V1035.31H727.966V1035.57C727.966 1043.14 722.094 1049.53 714.461 1049.53C706.762 1049.53 700.891 1043.2 700.891 1035.57V1016.52C700.891 1008.88 706.762 1002.55 714.461 1002.55C722.094 1002.55 727.966 1008.95 727.966 1016.52ZM755.802 1003.21H761.869V1048.88H755.802V1028.39H740.535V1048.88H734.468V1003.21H740.535V1022.32H755.802V1003.21ZM774.887 1003.21V1048.88H768.363V1003.21H774.887ZM795.386 1049.53C788.014 1049.53 782.012 1044.64 781.424 1036.61H787.557V1037.13C787.557 1040.98 791.211 1043.59 795.256 1043.59C799.431 1043.59 802.367 1040.98 802.367 1037.07C802.367 1026.96 781.555 1029.04 781.555 1016.06C781.555 1007.45 786.644 1002.69 795.125 1002.62C802.628 1002.55 807.587 1008.17 807.978 1015.6H801.976C801.845 1011.36 798.779 1008.69 794.734 1008.69C790.493 1008.69 787.492 1010.78 787.492 1014.89C787.492 1026.11 808.5 1021.21 808.5 1036.61C808.5 1044.05 802.498 1049.53 795.386 1049.53ZM815.002 1003.21H842.403V1009.27H821.069V1022.39H839.337V1028.46H821.069V1042.81H842.403V1048.88H815.002V1003.21ZM842.403 1009.34H821.134V1022.39H839.337V1028.46H821.134V1042.74H842.403V1048.81H815.067V1003.27H842.403V1009.34ZM848.897 1003.21H876.299V1009.27H865.664V1048.88H859.532V1009.27H848.897V1003.21Z" fill="black"/>
</svg>
