<svg width="1200" height="600" viewBox="0 0 1200 600" fill="none" xmlns="http://www.w3.org/2000/svg">
<path d="M527.98 287V246.68H540.64C550.54 246.68 556.72 249.44 556.72 257.48V261.98C556.72 269.84 550.54 272.54 540.64 272.54H535.06V287C533.02 287.24 530.14 287.3 527.98 287ZM549.64 260.9V258.62C549.64 253.52 545.68 252.74 540.76 252.74H535.06V266.66H540.76C545.68 266.66 549.64 265.82 549.64 260.9ZM564.601 287V246.68C566.701 246.44 569.641 246.44 571.681 246.68V287C569.641 287.24 566.701 287.24 564.601 287ZM605.592 287H581.652V246.68H605.592C605.892 248.36 605.892 250.82 605.592 252.5H588.732V263.72H604.992C605.292 265.4 605.292 267.86 604.992 269.48H588.732V281.18H605.592C605.892 282.8 605.892 285.38 605.592 287ZM613.937 287V246.68H626.597C636.497 246.68 642.677 249.44 642.677 257.24V261.56C642.677 267.02 639.437 269.9 633.977 271.1C637.817 276.08 640.817 281.9 643.277 287C641.177 287.24 637.877 287.24 635.777 287C633.437 282.14 630.437 276.62 626.717 271.82H621.017V287C618.857 287.24 616.097 287.24 613.937 287ZM635.597 260.42V258.5C635.597 253.4 631.637 252.74 626.717 252.74H621.017V265.94H626.717C631.637 265.94 635.597 265.22 635.597 260.42ZM651.378 287V246.68H664.038C673.938 246.68 680.118 249.44 680.118 257.24V261.56C680.118 267.02 676.878 269.9 671.418 271.1C675.258 276.08 678.258 281.9 680.718 287C678.618 287.24 675.318 287.24 673.218 287C670.878 282.14 667.878 276.62 664.158 271.82H658.458V287C656.298 287.24 653.538 287.24 651.378 287ZM673.038 260.42V258.5C673.038 253.4 669.078 252.74 664.158 252.74H658.458V265.94H664.158C669.078 265.94 673.038 265.22 673.038 260.42ZM712.76 287H688.82V246.68H712.76C713.06 248.36 713.06 250.82 712.76 252.5H695.9V263.72H712.16C712.46 265.4 712.46 267.86 712.16 269.48H695.9V281.18H712.76C713.06 282.8 713.06 285.38 712.76 287ZM558.58 354V325.98L549.4 343.32C547.6 343.56 546.1 343.56 544.3 343.32L535.06 325.86V354C533.02 354.24 530.08 354.24 527.98 354V313.68C530.08 313.44 533.56 313.44 535.6 313.68L546.88 335.34L558.22 313.68C560.32 313.44 563.62 313.44 565.66 313.68V354C563.62 354.24 560.68 354.24 558.58 354ZM600.217 354L596.977 344.1H582.637L579.457 354C577.357 354.24 574.237 354.24 572.197 354L586.417 313.68C588.577 313.44 591.217 313.44 593.377 313.68L607.597 354C605.497 354.24 602.317 354.24 600.217 354ZM595.117 338.34L589.837 321.9L584.497 338.34H595.117ZM614.113 354V313.68H626.773C636.673 313.68 642.853 316.44 642.853 324.24V328.56C642.853 334.02 639.613 336.9 634.153 338.1C637.993 343.08 640.993 348.9 643.453 354C641.353 354.24 638.053 354.24 635.953 354C633.613 349.14 630.613 343.62 626.893 338.82H621.193V354C619.033 354.24 616.273 354.24 614.113 354ZM635.773 327.42V325.5C635.773 320.4 631.813 319.74 626.893 319.74H621.193V332.94H626.893C631.813 332.94 635.773 332.22 635.773 327.42ZM650.594 343.56V324C650.594 315.54 656.834 312.84 666.434 312.84C669.974 312.84 673.394 313.08 677.294 313.86C677.594 315.54 677.594 318 677.294 319.62C673.934 319.08 670.934 318.84 667.514 318.84C662.054 318.84 657.674 319.44 657.674 325.38V342.06C657.674 347.94 662.054 348.6 667.514 348.6C671.054 348.6 674.354 347.88 677.414 347.16C677.894 348.84 678.134 350.94 678.134 352.86C674.054 354.12 669.794 354.72 666.434 354.72C656.834 354.72 650.594 352.02 650.594 343.56ZM709.346 354V336.48H693.146V354C691.106 354.24 688.166 354.24 686.066 354V313.68C688.166 313.44 691.106 313.44 693.146 313.68V330.24H709.346V313.68C711.446 313.44 714.386 313.44 716.426 313.68V354C714.386 354.24 711.446 354.24 709.346 354ZM726.378 354V313.68C728.478 313.44 731.418 313.44 733.458 313.68V354C731.418 354.24 728.478 354.24 726.378 354ZM767.369 340.86V345.06C767.369 352.08 762.149 354.72 753.329 354.72C749.729 354.72 745.469 354.48 741.569 353.82C741.269 352.14 741.269 349.5 741.569 347.82C745.949 348.42 749.609 348.66 753.269 348.66C757.169 348.66 760.349 348.06 760.349 344.04V341.82C760.349 338.76 759.209 338.46 755.669 337.32L747.809 334.74C743.669 333.36 741.449 331.5 741.449 326.34V322.5C741.449 315.42 747.329 312.84 755.849 312.84C759.629 312.84 762.869 313.08 767.009 313.98C767.369 315.6 767.369 318.12 767.009 319.74C762.749 319.02 759.749 318.78 756.029 318.78C751.709 318.78 748.469 319.38 748.469 323.4V325.32C748.469 327.96 749.669 328.5 753.209 329.7L761.069 332.34C765.269 333.78 767.369 335.28 767.369 340.86ZM799.303 354H775.363V313.68H799.303C799.603 315.36 799.603 317.82 799.303 319.5H782.443V330.72H798.703C799.003 332.4 799.003 334.86 798.703 336.48H782.443V348.18H799.303C799.603 349.8 799.603 352.38 799.303 354ZM815.508 354V319.5H803.808C803.568 317.88 803.568 315.36 803.808 313.68H834.228C834.468 315.36 834.468 317.88 834.228 319.5H822.588V354C820.548 354.24 817.608 354.24 815.508 354Z" fill="white"/>
<path d="M373 309.343V372.167C373 373.458 374.23 374.5 375.754 374.5H407.741C409.329 374.5 410.587 373.372 410.495 372.035C409.706 361.022 404.821 316.482 376.718 307.157C374.928 306.566 373 307.717 373 309.35V309.343Z" fill="white"/>
<path d="M433.994 342.884C435.612 346.006 442.648 360.133 443.695 372.251C443.791 373.372 444.814 374.245 446.062 374.26L465.053 374.5C466.397 374.514 467.5 373.532 467.5 372.316V320.438C467.5 318.859 465.713 317.803 464.111 318.437C456.109 321.624 436.506 330.482 433.801 341.545C433.688 341.996 433.769 342.462 433.986 342.884H433.994Z" fill="white"/>
<path d="M373 228.243V266.562C373 267.242 373.323 267.885 373.883 268.311C379.223 272.364 407.182 294.54 417.079 321.225C417.419 322.129 418.302 322.75 419.319 322.75H423.286C424.028 322.75 424.73 322.421 425.171 321.86C428.224 318.002 441.639 302.57 465.796 295.624C466.806 295.333 467.5 294.465 467.5 293.471V228.243C467.5 227.002 466.443 226 465.134 226H375.366C374.057 226 373 227.002 373 228.243Z" fill="white"/>
</svg>
