<svg width="1200" height="600" viewBox="0 0 1200 600" fill="none" xmlns="http://www.w3.org/2000/svg">
<path d="M497.548 284.795L480.535 260.113C489.262 259.761 496.843 253.855 496.843 243.189C496.843 232.435 489.086 226 478.949 226H457V284.795H462.024V260.466H474.982L491.466 284.795H497.548ZM491.554 243.189C491.554 250.593 486.265 255.882 478.508 255.882H462.024V230.584H478.508C486.265 230.584 491.554 235.784 491.554 243.189ZM577.476 284.795V280.211H545.214V256.94H576.859V252.356H545.214V230.584H577.476V226H540.189V284.795H577.476ZM669.189 284.795L645.125 226H638.866L614.802 284.795H620.444L626.35 270.338H657.642L663.548 284.795H669.189ZM656.055 265.755H627.936L641.952 230.936L656.055 265.755ZM742.215 284.795V280.211H713.744V226H708.72V284.795H742.215ZM462.024 372.942V314.148H457V372.942H462.024ZM497.606 364.656C502.101 370.122 509.418 374 519.114 374C534.98 374 540.005 364.921 540.005 357.34C540.005 345.44 529.603 342.443 520.083 339.711C512.062 337.595 504.746 335.568 504.746 328.604C504.746 322.257 510.652 317.762 518.497 317.762C525.108 317.762 531.102 320.054 535.333 325.166L538.683 321.464C534.099 316.263 527.576 313.178 518.761 313.178C508.095 313.178 499.457 319.26 499.457 328.868C499.457 339.711 509.329 342.355 518.585 344.911C526.871 347.115 534.716 349.407 534.716 357.693C534.716 362.717 531.278 369.416 519.202 369.416C510.828 369.416 504.658 365.273 500.867 360.866L497.606 364.656ZM596.166 372.942V318.731H615.382V314.148H571.837V318.731H591.053V372.942H596.166ZM655.088 372.942V314.148H650.064V372.942H655.088ZM721.345 374C730.864 374 737.739 369.945 742.94 363.51L738.709 360.866C735.007 365.979 728.573 369.416 721.345 369.416C707.682 369.416 697.016 358.75 697.016 343.589C697.016 328.251 707.682 317.762 721.345 317.762C728.573 317.762 735.007 321.2 738.709 326.312L742.94 323.58C737.915 317.321 730.864 313.178 721.345 313.178C704.861 313.178 691.727 325.519 691.727 343.589C691.727 361.659 704.861 374 721.345 374Z" fill="white"/>
</svg>
