<svg width="1200" height="600" viewBox="0 0 1200 600" fill="none" xmlns="http://www.w3.org/2000/svg">
<path d="M661.193 226L645.233 253.647L633.255 274.383L581.382 364.237H549.511L585.425 302.03H539.925L526.509 325.268L526.488 325.254L510.695 297.897L524.269 274.383L536.241 253.647L552.207 226H582.702L583.538 226.484L567.855 253.647L555.884 274.383H601.392L613.363 253.647L629.322 226H661.193Z" fill="white"/>
<path d="M519.21 253.647H468.069L531.921 364.237H500.237L436.385 253.647H405.939L400.022 243.404L390 226.041V226H535.149V226.041L519.21 253.647Z" fill="white"/>
<path d="M810.26 374.017L809.984 374.176L797.798 370.914L772.888 364.237H637.541L637.416 364.168L717.186 226H807.129V226.166L791.267 253.647H733.097L685.205 336.589H756.728L745.31 316.815L761.276 289.167L810.26 374.017Z" fill="white"/>
<path d="M633.29 343.501L621.312 364.237H597.369L609.34 343.501H633.29Z" fill="white"/>
</svg>
