<svg width="50" height="29" viewBox="0 0 50 29" fill="none" xmlns="http://www.w3.org/2000/svg">
<path d="M42.8572 0C46.8021 0 50 3.19797 50 7.14286V28.5714H42.8572V0Z" fill="white"/>
<path d="M21.4286 0H28.5714V28.5714C24.6266 28.5714 21.4286 25.3735 21.4286 21.4286V0Z" fill="white"/>
<path d="M32.1428 0H39.2857V28.5714H32.1428V0Z" fill="white"/>
<path d="M10.7142 0C14.6591 0 17.8571 3.19796 17.8571 7.14285V10.7143C17.8571 14.6592 14.6591 17.8571 10.7142 17.8571V0Z" fill="white"/>
<path d="M0 7.14286C0 3.19797 3.19797 0 7.14286 0V21.4286C7.14286 25.3735 3.94489 28.5714 0 28.5714V7.14286Z" fill="white"/>
</svg>
